<svg width="515" height="349" viewBox="0 0 515 349" fill="none" xmlns="http://www.w3.org/2000/svg">
<g clip-path="url(#clip0)">
<path d="M183.171 320.104H183.17C179.49 320.104 175.934 319.22 173.156 317.615L15.3054 226.381C11.4808 224.169 9.28711 220.714 9.28711 216.901C9.28711 213.088 11.4807 209.635 15.3049 207.423L112.185 151.429C114.961 149.825 118.519 148.94 122.199 148.94C125.878 148.94 129.434 149.825 132.21 151.429L290.064 242.663C293.887 244.875 296.081 248.328 296.081 252.143C296.081 255.957 293.887 259.409 290.064 261.621L193.183 317.615C190.406 319.22 186.85 320.104 183.171 320.104V320.104Z" fill="#D3D9F3"/>
<path d="M82.5593 150.533C75.2722 150.533 67.9837 148.925 62.4237 145.713C51.3041 139.286 51.3041 128.867 62.4237 122.44C65.1069 120.887 68.1968 119.722 71.4899 118.918C71.5609 114.761 74.335 110.617 79.8226 107.444C85.3832 104.231 92.6697 102.624 99.9575 102.624C107.245 102.624 114.532 104.231 120.092 107.444C131.212 113.871 131.212 124.291 120.092 130.718C117.409 132.27 114.319 133.436 111.027 134.238C110.955 138.395 108.181 142.541 102.693 145.713C97.1329 148.928 89.8464 150.533 82.5593 150.533H82.5593Z" fill="#D3D9F3"/>
<path fill-rule="evenodd" clip-rule="evenodd" d="M125.221 111.499H122.69C121.6 110.257 120.162 109.091 118.365 108.052C109.224 102.769 94.405 102.769 85.2649 108.052C83.4684 109.091 82.0303 110.257 80.9399 111.499H78.4102V117.618C78.4108 121.079 80.6956 124.541 85.2661 127.183C94.407 132.465 109.225 132.465 118.366 127.183C122.937 124.541 125.221 121.079 125.221 117.618V111.499H125.221Z" fill="url(#paint0_linear)"/>
<path d="M118.366 121.079C109.226 126.362 94.4071 126.362 85.2662 121.079C76.1253 115.795 76.1247 107.23 85.265 101.947C94.4057 96.6647 109.225 96.6647 118.365 101.948C127.506 107.231 127.507 115.796 118.366 121.079Z" fill="#FFE200"/>
<path d="M115.975 119.725C108.118 124.263 95.3788 124.263 87.5209 119.722C79.6628 115.181 79.6622 107.818 87.5195 103.276C95.3775 98.7359 108.117 98.7359 115.975 103.277C123.833 107.819 123.833 115.182 115.975 119.725Z" fill="#FFBB00"/>
<path d="M101.887 99.8733C97.2798 100.083 92.773 101.203 89.2486 103.239C81.3913 107.781 81.3913 115.144 89.2492 119.686C93.1424 121.936 98.2345 123.071 103.336 123.089C97.6718 123.349 91.8545 122.229 87.5209 119.722C79.6628 115.182 79.6622 107.818 87.5195 103.277C91.4844 100.986 96.6916 99.8521 101.887 99.8733V99.8733Z" fill="#FF9418"/>
<path d="M97.5256 121.853L119.66 109.061C119.336 108.263 118.856 107.501 118.241 106.783L93.585 121.033C94.8258 121.388 96.1455 121.666 97.5256 121.853Z" fill="#FFE200"/>
<path d="M85.6737 116.677L110.705 102.211C108.825 101.604 106.742 101.182 104.529 100.987L83.5576 113.108C83.8935 114.387 84.6239 115.591 85.6737 116.677L85.6737 116.677Z" fill="#FFE200"/>
<path d="M92.2879 120.623L117.531 106.033C117.16 105.676 116.752 105.332 116.313 105.003L90.5059 119.918C91.0745 120.172 91.6693 120.408 92.2879 120.623V120.623Z" fill="#FFE200"/>
<path d="M88.164 118.673L114.157 103.65C113.347 103.222 112.471 102.836 111.538 102.496L86.168 117.159C86.7553 117.698 87.4236 118.205 88.164 118.673V118.673Z" fill="#FFE200"/>
<path fill-rule="evenodd" clip-rule="evenodd" d="M125.221 104.152H122.69C121.6 102.91 120.162 101.745 118.365 100.706C109.224 95.4227 94.405 95.422 85.2649 100.705C83.4684 101.744 82.0303 102.91 80.9399 104.152H78.4102V110.271C78.4108 113.733 80.6956 117.195 85.2661 119.837C94.407 125.121 109.225 125.121 118.366 119.837C122.937 117.196 125.221 113.734 125.221 110.271V104.152H125.221Z" fill="url(#paint1_linear)"/>
<path d="M118.366 113.733C109.226 119.015 94.4071 119.015 85.2662 113.732C76.1253 108.449 76.1247 99.8835 85.265 94.6007C94.4057 89.3179 109.225 89.3179 118.365 94.6013C127.506 99.8847 127.507 108.45 118.366 113.733Z" fill="#FFE200"/>
<path d="M115.975 112.377C108.118 116.918 95.3788 116.918 87.5209 112.377C79.6628 107.835 79.6622 100.472 87.5195 95.9302C95.3775 91.3891 108.117 91.3891 115.975 95.9308C123.833 100.472 123.833 107.836 115.975 112.377Z" fill="#FFBB00"/>
<path d="M101.887 92.5257C97.2798 92.7359 92.773 93.8555 89.2486 95.8928C81.3913 100.434 81.3913 107.797 89.2492 112.339C93.1424 114.589 98.2345 115.723 103.336 115.743C97.6718 116.001 91.8545 114.881 87.5209 112.376C79.6628 107.834 79.6622 100.471 87.5195 95.9296C91.4844 93.6385 96.6916 92.505 101.887 92.5257Z" fill="#FF9418"/>
<path d="M97.5265 114.506L119.66 101.714C119.336 100.916 118.856 100.154 118.241 99.4365L93.5869 113.686C94.8275 114.041 96.1469 114.318 97.5265 114.506Z" fill="#FFE200"/>
<path d="M85.6738 109.331L110.706 94.8637C108.825 94.2569 106.742 93.8349 104.529 93.6406L83.5576 105.761C83.8935 107.04 84.6239 108.244 85.6739 109.331L85.6738 109.331Z" fill="#FFE200"/>
<path d="M92.2886 113.276L117.531 98.6868C117.159 98.329 116.752 97.9851 116.312 97.6562L90.5059 112.572C91.0747 112.826 91.6697 113.061 92.2886 113.276V113.276Z" fill="#FFE200"/>
<path d="M88.1633 111.325L114.157 96.3028C113.347 95.875 112.471 95.4888 111.538 95.1494L86.168 109.812C86.7552 110.351 87.4233 110.857 88.1633 111.325V111.325Z" fill="#FFE200"/>
<path fill-rule="evenodd" clip-rule="evenodd" d="M125.221 96.8057H122.69C121.6 95.5637 120.162 94.3973 118.365 93.3594C109.224 88.076 94.405 88.0753 85.2649 93.3586C83.4684 94.3973 82.0303 95.5637 80.9399 96.8057H78.4102V102.924C78.4108 106.386 80.6956 109.848 85.2661 112.49C94.407 117.773 109.225 117.773 118.366 112.491C122.937 109.849 125.221 106.387 125.221 102.924V96.8057H125.221Z" fill="url(#paint2_linear)"/>
<path d="M118.366 106.386C109.226 111.668 94.4071 111.668 85.2662 106.385C76.1253 101.102 76.1247 92.5365 85.265 87.2537C94.4057 81.971 109.225 81.9716 118.365 87.2544C127.506 92.5371 127.507 101.103 118.366 106.386Z" fill="#FFE200"/>
<path d="M115.975 105.029C108.118 109.571 95.3788 109.57 87.5209 105.029C79.6628 100.487 79.6622 93.1237 87.5195 88.5826C95.3775 84.0414 108.117 84.0414 115.975 88.5832C123.833 93.1249 123.833 100.488 115.975 105.029Z" fill="#FFBB00"/>
<path d="M101.887 85.179C97.2798 85.3886 92.773 86.5088 89.2486 88.5461C81.3913 93.0872 81.3913 100.45 89.2492 104.992C93.1424 107.242 98.2345 108.376 103.336 108.397C97.6718 108.654 91.8545 107.534 87.5209 105.029C79.6628 100.488 79.6622 93.1241 87.5195 88.583C91.4844 86.2917 96.6916 85.1584 101.887 85.179Z" fill="#FF9418"/>
<path d="M97.5269 107.158L119.659 94.3671C119.335 93.5697 118.856 92.8069 118.241 92.0898L93.5869 106.339C94.8276 106.694 96.1472 106.971 97.5269 107.158Z" fill="#FFE200"/>
<path d="M85.6738 101.984L110.706 87.5172C108.825 86.9102 106.742 86.4882 104.529 86.2939L83.5576 98.4147C83.8935 99.6935 84.6239 100.897 85.6739 101.984L85.6738 101.984Z" fill="#FFE200"/>
<path d="M92.2898 105.929L117.532 91.3401C117.16 90.9823 116.753 90.6384 116.313 90.3096L90.5068 105.225C91.0757 105.479 91.6707 105.714 92.2898 105.929V105.929Z" fill="#FFE200"/>
<path d="M88.1639 103.979L114.157 88.956C113.348 88.5282 112.471 88.1423 111.539 87.8027L86.168 102.465C86.7553 103.004 87.4236 103.511 88.1639 103.979V103.979Z" fill="#FFE200"/>
<path fill-rule="evenodd" clip-rule="evenodd" d="M125.221 89.4589H122.69C121.6 88.217 120.162 87.0505 118.365 86.0124C109.224 80.729 94.405 80.729 85.2649 86.0118C83.4684 87.0505 82.0303 88.2164 80.9399 89.4589H78.4102V95.5775C78.4108 99.0395 80.6956 102.501 85.2661 105.143C94.407 110.426 109.225 110.427 118.366 105.143C122.937 102.502 125.221 99.0401 125.221 95.5775V89.4589H125.221Z" fill="url(#paint3_linear)"/>
<path d="M118.366 99.039C109.226 104.321 94.4071 104.321 85.2662 99.0384C76.1253 93.755 76.1247 85.1898 85.265 79.9072C94.4057 74.6242 109.225 74.625 118.365 79.9078C127.506 85.1912 127.507 93.7562 118.366 99.039Z" fill="#FFE200"/>
<path d="M115.975 97.6822C108.118 102.224 95.3788 102.223 87.5209 97.6816C79.6628 93.1405 79.6622 85.7766 87.5195 81.2355C95.3775 76.6944 108.117 76.6952 115.975 81.2363C123.833 85.778 123.833 93.1411 115.975 97.6822Z" fill="#FFBB00"/>
<path d="M101.887 77.8323C97.2798 78.0419 92.773 79.1622 89.2486 81.1988C81.3913 85.7405 81.3913 93.1036 89.2492 97.6453C93.1424 99.8953 98.2345 101.029 103.336 101.05C97.6718 101.308 91.8545 100.187 87.5209 97.6822C79.6628 93.1411 79.6622 85.7772 87.5195 81.2361C91.4844 78.945 96.6916 77.8117 101.887 77.8323V77.8323Z" fill="#FF9418"/>
<path d="M97.5253 99.8114L119.659 87.0194C119.335 86.222 118.855 85.4592 118.24 84.7422L93.585 98.9914C94.8257 99.3469 96.1454 99.6243 97.5253 99.8114Z" fill="#FFE200"/>
<path d="M85.6738 94.6362L110.706 80.1694C108.825 79.5626 106.742 79.1404 104.529 78.9463L83.5576 91.0664C83.8935 92.3455 84.6239 93.5494 85.6739 94.6362L85.6738 94.6362Z" fill="#FFE200"/>
<path d="M92.2885 98.5821L117.531 83.9929C117.159 83.6353 116.752 83.2914 116.313 82.9629L90.5059 97.8779C91.0747 98.132 91.6696 98.3674 92.2885 98.5822V98.5821Z" fill="#FFE200"/>
<path d="M88.1637 96.6315L114.157 81.6086C113.347 81.1808 112.471 80.7946 111.538 80.4551L86.168 95.1178C86.7553 95.6568 87.4236 96.1634 88.1637 96.6315V96.6315Z" fill="#FFE200"/>
<path fill-rule="evenodd" clip-rule="evenodd" d="M125.221 82.1121H122.69C121.6 80.8695 120.162 79.7031 118.365 78.665C109.224 73.3816 94.405 73.381 85.2649 78.6644C83.4684 79.7024 82.0303 80.8688 80.9399 82.112H78.4102V88.2301C78.4108 91.692 80.6956 95.154 85.2661 97.7958C94.407 103.078 109.225 103.078 118.366 97.7958C122.937 95.1547 125.221 91.6926 125.221 88.2301V82.112L125.221 82.1121Z" fill="url(#paint4_linear)"/>
<path d="M118.366 91.6924C109.226 96.9752 94.4071 96.9744 85.2662 91.6917C76.1253 86.4089 76.1247 77.8432 85.265 72.5604C94.4057 67.2776 109.225 67.2783 118.365 72.561C127.506 77.8438 127.507 86.4089 118.366 91.6924Z" fill="#FFE200"/>
<path d="M115.975 90.3357C108.118 94.8774 95.3788 94.8768 87.5209 90.3351C79.6628 85.7939 79.6622 78.4303 87.5195 73.8898C95.3775 69.3479 108.117 69.3479 115.975 73.8898C123.833 78.4315 123.833 85.7945 115.975 90.3357Z" fill="#FFBB00"/>
<path d="M101.887 70.4856C97.2798 70.6952 92.773 71.8162 89.2486 73.8523C81.3913 78.394 81.3913 85.7571 89.2492 90.2988C93.1424 92.5488 98.2345 93.6829 103.336 93.7028C97.6718 93.961 91.8545 92.8401 87.5209 90.3357C79.6628 85.7944 79.6622 78.4309 87.5195 73.8904C91.4844 71.5985 96.6916 70.4652 101.887 70.4856Z" fill="#FF9418"/>
<path d="M97.5252 92.4649L119.659 79.6729C119.335 78.8753 118.855 78.1125 118.24 77.3955L93.585 91.6447C94.8257 92.0004 96.1454 92.2776 97.5252 92.4649Z" fill="#FFE200"/>
<path d="M85.674 87.2894L110.705 72.8226C108.825 72.2157 106.742 71.7937 104.529 71.5996L83.5576 83.7197C83.8936 84.9987 84.6239 86.2027 85.674 87.2893L85.674 87.2894Z" fill="#FFE200"/>
<path d="M92.2891 91.2355L117.532 76.6464C117.16 76.2888 116.753 75.9449 116.313 75.6162L90.5059 90.5311C91.0747 90.7853 91.67 91.0208 92.2891 91.2355V91.2355Z" fill="#FFE200"/>
<path d="M88.1633 89.2843L114.157 74.2615C113.347 73.8339 112.471 73.4478 111.538 73.1084L86.168 87.7709C86.7552 88.3098 87.4233 88.8164 88.1633 89.2843V89.2843Z" fill="#FFE200"/>
<path fill-rule="evenodd" clip-rule="evenodd" d="M105.032 126.414H102.501C101.411 125.173 99.9728 124.007 98.1763 122.968C89.0355 117.686 74.2155 117.685 65.076 122.968C63.2791 124.007 61.8409 125.173 60.7504 126.414H58.2207V132.533C58.2213 135.995 60.5061 139.457 65.0766 142.099C74.2175 147.382 89.0367 147.382 98.1775 142.099C102.747 139.457 105.032 135.995 105.032 132.533V126.414Z" fill="url(#paint5_linear)"/>
<path d="M98.1783 135.995C89.0376 141.278 74.2177 141.278 65.0774 135.995C55.9365 130.712 55.9365 122.147 65.0768 116.863C74.2164 111.581 89.0364 111.581 98.1771 116.864C107.317 122.147 107.318 130.712 98.1783 135.995Z" fill="#FFE200"/>
<path d="M95.7863 134.638C87.9289 139.179 75.1897 139.179 67.3318 134.638C59.4744 130.096 59.4738 122.732 67.3312 118.192C75.1885 113.651 87.9283 113.651 95.7857 118.192C103.644 122.735 103.644 130.098 95.7863 134.638Z" fill="#FFBB00"/>
<path d="M81.6984 114.788C77.0907 114.997 72.5839 116.118 69.0601 118.155C61.2022 122.695 61.2028 130.059 69.0601 134.601C72.9533 136.852 78.0453 137.984 83.1479 138.005C77.4827 138.264 71.6653 137.142 67.3318 134.638C59.4744 130.096 59.4738 122.732 67.3312 118.192C71.2953 115.901 76.5026 114.767 81.6984 114.788V114.788Z" fill="#FF9418"/>
<path d="M77.3361 136.769L99.4707 123.976C99.1467 123.178 98.6669 122.415 98.0516 121.698L73.3955 135.948C74.6362 136.304 75.9561 136.581 77.336 136.769H77.3361Z" fill="#FFE200"/>
<path d="M65.4846 131.592L90.5163 117.125C88.6363 116.518 86.5535 116.096 84.3411 115.902L63.3691 128.023C63.7053 129.302 64.4354 130.505 65.4846 131.592Z" fill="#FFE200"/>
<path d="M72.0993 135.539L97.3429 120.949C96.9713 120.591 96.5642 120.248 96.1245 119.919L70.3174 134.835C70.8858 135.089 71.4806 135.324 72.0993 135.539V135.539Z" fill="#FFE200"/>
<path d="M67.9753 133.588L93.9681 118.564C93.1586 118.137 92.2822 117.751 91.3499 117.411L65.9805 132.075C66.5677 132.614 67.2355 133.12 67.9753 133.588Z" fill="#FFE200"/>
<path fill-rule="evenodd" clip-rule="evenodd" d="M105.032 119.067H102.501C101.411 117.825 99.9728 116.659 98.1763 115.621C89.0355 110.337 74.2155 110.337 65.076 115.62C63.2791 116.659 61.8409 117.825 60.7504 119.067H58.2207V125.188C58.2213 128.65 60.5061 132.108 65.0766 134.75C74.2175 140.033 89.0367 140.036 98.1775 134.753C102.747 132.112 105.032 128.65 105.032 125.188V119.067Z" fill="url(#paint6_linear)"/>
<path d="M98.1783 128.647C89.0376 133.93 74.2177 133.93 65.0774 128.647C55.9365 123.364 55.9365 114.798 65.0768 109.516C74.2164 104.233 89.0364 104.233 98.1771 109.516C107.317 114.8 107.318 123.364 98.1783 128.647Z" fill="#FFE200"/>
<path d="M95.7863 127.293C87.9289 131.835 75.1897 131.835 67.3318 127.293C59.4744 122.751 59.4738 115.387 67.3312 110.845C75.1885 106.304 87.9283 106.304 95.7857 110.846C103.644 115.387 103.644 122.751 95.7863 127.293Z" fill="#FFBB00"/>
<path d="M81.6984 107.441C77.0907 107.651 72.5839 108.771 69.0601 110.808C61.2022 115.349 61.2028 122.714 69.0601 127.253C72.9533 129.504 78.0453 130.638 83.1479 130.656C77.4827 130.916 71.6653 129.796 67.3318 127.292C59.4744 122.75 59.4738 115.386 67.3312 110.845C71.2953 108.553 76.5026 107.42 81.6984 107.441Z" fill="#FF9418"/>
<path d="M77.336 129.42L99.4699 116.629C99.146 115.831 98.6662 115.069 98.0512 114.352L73.3984 128.601C74.6384 128.956 75.957 129.233 77.336 129.42Z" fill="#FFE200"/>
<path d="M65.4853 124.246L90.5159 109.779C88.6356 109.172 86.5524 108.75 84.3394 108.556L63.3682 120.676C63.704 121.955 64.4349 123.159 65.4853 124.246L65.4853 124.246Z" fill="#FFE200"/>
<path d="M72.1024 128.191L97.3429 113.602C96.9712 113.244 96.5639 112.9 96.1242 112.571L70.3174 127.486C70.887 127.74 71.4827 127.976 72.1024 128.191V128.191Z" fill="#FFE200"/>
<path d="M67.9745 126.24L93.9673 111.218C93.1578 110.79 92.2815 110.404 91.3491 110.064L65.9795 124.727C66.5668 125.266 67.2346 125.773 67.9745 126.24V126.24Z" fill="#FFE200"/>
<path fill-rule="evenodd" clip-rule="evenodd" d="M105.032 111.721H102.501C101.411 110.479 99.9728 109.312 98.1763 108.274C89.0355 102.991 74.2155 102.991 65.076 108.274C63.2791 109.312 61.8409 110.479 60.7504 111.721H58.2207V117.839C58.2213 121.302 60.5061 124.764 65.0766 127.406C74.2175 132.688 89.0367 132.688 98.1775 127.406C102.747 124.764 105.032 121.302 105.032 117.839V111.721Z" fill="url(#paint7_linear)"/>
<path d="M98.1783 121.302C89.0376 126.585 74.2177 126.582 65.0774 121.299C55.9365 116.017 55.9365 107.452 65.0768 102.169C74.2164 96.8862 89.0364 96.8862 98.1771 102.17C107.317 107.453 107.318 116.018 98.1783 121.302V121.302Z" fill="#FFE200"/>
<path d="M95.7863 119.945C87.9289 124.487 75.1897 124.487 67.3318 119.945C59.4744 115.403 59.4738 108.04 67.3312 103.498C75.1885 98.9572 87.9283 98.9578 95.7857 103.499C103.644 108.041 103.644 115.404 95.7863 119.945V119.945Z" fill="#FFBB00"/>
<path d="M81.6984 100.095C77.0907 100.305 72.5839 101.424 69.0601 103.461C61.2022 108.003 61.2028 115.366 69.0601 119.908C72.9533 122.156 78.0453 123.291 83.1479 123.312C77.4827 123.568 71.6653 122.449 67.3318 119.945C59.4744 115.403 59.4738 108.04 67.3312 103.498C71.2953 101.207 76.5026 100.074 81.6984 100.095V100.095Z" fill="#FF9418"/>
<path d="M77.3402 122.073L99.4703 109.282C99.1463 108.485 98.6665 107.722 98.0514 107.005L73.3984 121.253C74.6396 121.609 75.9597 121.886 77.3402 122.073H77.3402Z" fill="#FFE200"/>
<path d="M65.4855 116.899L90.5163 102.432C88.636 101.825 86.553 101.403 84.3402 101.209L63.3691 113.33C63.705 114.608 64.4355 115.812 65.4855 116.899L65.4855 116.899Z" fill="#FFE200"/>
<path d="M72.1017 120.844L97.3421 106.256C96.9706 105.898 96.5634 105.554 96.1239 105.226L70.3193 120.14C70.8879 120.394 71.4829 120.629 72.1017 120.844Z" fill="#FFE200"/>
<path d="M67.9742 118.893L93.9676 103.871C93.1579 103.443 92.2814 103.057 91.349 102.718L65.9795 117.38C66.5665 117.919 67.2345 118.425 67.9742 118.893V118.893Z" fill="#FFE200"/>
<path d="M487.421 219.079C480.361 219.079 473.305 217.523 467.918 214.412C457.147 208.186 457.147 198.093 467.918 191.867C473.302 188.756 480.361 187.2 487.419 187.2C494.478 187.2 501.535 188.756 506.922 191.867C517.693 198.093 517.693 208.186 506.922 214.412C501.538 217.523 494.478 219.079 487.421 219.079H487.421Z" fill="#D3D9F3"/>
<path fill-rule="evenodd" clip-rule="evenodd" d="M510.825 196.296H508.293C507.205 195.052 505.767 193.887 503.969 192.85C494.828 187.566 480.008 187.563 470.87 192.847C469.072 193.887 467.634 195.052 466.543 196.296H464.015V202.412C464.015 205.874 466.3 209.336 470.87 211.978C480.011 217.261 494.828 217.261 503.969 211.981C508.54 209.339 510.825 205.874 510.825 202.412V196.296V196.296Z" fill="url(#paint8_linear)"/>
<path d="M503.969 205.874C494.829 211.157 480.011 211.157 470.87 205.874C461.729 200.591 461.729 192.026 470.87 186.743C480.008 181.459 494.829 181.459 503.969 186.743C513.11 192.026 513.11 200.591 503.969 205.874Z" fill="#FFE200"/>
<path d="M501.58 204.52C493.723 209.061 480.983 209.058 473.125 204.52C465.267 199.977 465.267 192.614 473.125 188.072C480.98 183.531 493.719 183.531 501.578 188.072C509.436 192.614 509.436 199.977 501.58 204.52Z" fill="#FFBB00"/>
<path d="M487.492 184.668C482.884 184.879 478.378 185.999 474.852 188.036C466.995 192.578 466.995 199.938 474.852 204.48C478.747 206.731 483.838 207.866 488.942 207.884C483.274 208.143 477.458 207.025 473.125 204.52C465.267 199.978 465.267 192.615 473.125 188.073C477.089 185.782 482.296 184.647 487.492 184.668V184.668Z" fill="#FF9418"/>
<path d="M483.128 206.648L505.263 193.854C504.939 193.057 504.46 192.295 503.845 191.579L479.191 205.828C480.431 206.184 481.749 206.461 483.128 206.648V206.648Z" fill="#FFE200"/>
<path d="M471.278 201.473L496.308 187.006C494.427 186.399 492.343 185.977 490.129 185.783L469.161 197.902C469.497 199.181 470.227 200.386 471.278 201.473Z" fill="#FFE200"/>
<path d="M477.895 205.419L503.137 190.83C502.765 190.472 502.357 190.127 501.916 189.798L476.109 204.714C476.679 204.968 477.275 205.204 477.895 205.419V205.419Z" fill="#FFE200"/>
<path d="M473.768 203.468L499.76 188.445C498.951 188.017 498.074 187.631 497.142 187.292L471.772 201.955C472.36 202.494 473.028 203 473.768 203.468V203.468Z" fill="#FFE200"/>
<path fill-rule="evenodd" clip-rule="evenodd" d="M510.825 188.948H508.293C507.205 187.707 505.767 186.538 503.969 185.502C494.828 180.218 480.008 180.218 470.87 185.502C469.072 186.538 467.634 187.707 466.543 188.948H464.015V195.067C464.015 198.529 466.3 201.991 470.87 204.633C480.011 209.916 494.828 209.916 503.969 204.633C508.54 201.991 510.825 198.529 510.825 195.067V188.948Z" fill="url(#paint9_linear)"/>
<path d="M503.969 198.529C494.829 203.812 480.011 203.808 470.87 198.526C461.729 193.243 461.729 184.677 470.87 179.394C480.008 174.114 494.829 174.114 503.969 179.398C513.11 184.68 513.11 193.245 503.969 198.529Z" fill="#FFE200"/>
<path d="M501.58 197.172C493.723 201.714 480.983 201.714 473.125 197.172C465.267 192.629 465.267 185.266 473.125 180.725C480.98 176.183 493.719 176.183 501.578 180.725C509.436 185.266 509.436 192.629 501.58 197.172Z" fill="#FFBB00"/>
<path d="M487.492 177.32C482.884 177.53 478.378 178.65 474.852 180.687C466.995 185.229 466.995 192.593 474.852 197.135C478.747 199.383 483.838 200.517 488.942 200.538C483.274 200.795 477.458 199.675 473.125 197.171C465.267 192.629 465.267 185.266 473.125 180.724C477.089 178.434 482.296 177.301 487.492 177.32V177.32Z" fill="#FF9418"/>
<path d="M483.132 199.3L505.264 186.509C504.94 185.711 504.46 184.948 503.845 184.231L479.19 198.481C480.432 198.836 481.752 199.113 483.132 199.3Z" fill="#FFE200"/>
<path d="M471.277 194.125L496.308 179.658C494.427 179.052 492.344 178.63 490.132 178.436L469.161 190.554C469.496 191.834 470.226 193.038 471.277 194.125Z" fill="#FFE200"/>
<path d="M477.895 198.072L503.136 183.482C502.764 183.125 502.357 182.781 501.917 182.452L476.111 197.368C476.68 197.622 477.275 197.857 477.895 198.072V198.072Z" fill="#FFE200"/>
<path d="M473.767 196.12L499.762 181.098C498.952 180.671 498.076 180.285 497.144 179.945L471.771 194.607C472.359 195.146 473.027 195.653 473.767 196.12V196.12Z" fill="#FFE200"/>
<path d="M134.174 81.5781H134.173C128.875 84.9285 125.856 89.8399 125.856 95.1746C125.857 100.774 129.181 105.906 134.977 109.256L339.317 227.36C343.814 229.959 349.622 231.393 355.67 231.393C361.721 231.393 367.529 229.959 372.027 227.36L462.356 175.151C468.152 171.802 471.476 166.668 471.476 161.071C471.476 155.733 468.456 150.822 463.158 147.473C463.359 148.083 463.462 148.699 463.468 149.315V161.263C463.45 163.835 461.747 166.406 458.353 168.367L368.022 220.576C364.613 222.549 360.144 223.535 355.67 223.535C351.2 223.535 346.731 222.549 343.321 220.576L138.981 102.473C135.653 100.55 133.961 98.0435 133.88 95.5233L133.864 83.5437C133.858 82.8863 133.96 82.2272 134.174 81.5781V81.5781Z" fill="#D3D9F3"/>
<path d="M151.508 83.477V86.571L229.309 41.6027C236.131 37.6598 247.191 37.6598 254.012 41.6027L440.415 149.337L463.468 149.316V161.264C463.45 163.835 461.747 166.407 458.353 168.368L368.022 220.577C361.2 224.52 350.143 224.52 343.321 220.577L138.981 102.474C135.653 100.551 133.961 98.0443 133.88 95.5241L133.864 83.477H151.508L151.508 83.477Z" fill="white"/>
<path d="M368.023 208.72L458.353 156.511C465.175 152.567 465.175 146.177 458.353 142.233L254.013 24.1286C247.192 20.1863 236.131 20.1863 229.31 24.1286L138.982 76.3377C132.16 80.2812 132.16 86.6731 138.982 90.616L343.322 208.72C350.143 212.664 361.201 212.664 368.023 208.72Z" fill="#3C3B61"/>
<path d="M182.927 64.8242L209.391 49.5291C209.999 49.1774 209.923 48.5635 209.221 48.1575L208.518 47.752C207.815 47.3459 206.754 47.3017 206.146 47.6534L179.682 62.9485C179.074 63.301 179.15 63.9141 179.852 64.3196L180.554 64.7263C181.257 65.1318 182.319 65.1761 182.927 64.8242H182.927Z" fill="#D7DFF9"/>
<path d="M399.958 180.178L408.968 174.968C410.732 173.95 410.512 172.168 408.474 170.991L400.455 166.355C398.416 165.178 395.336 165.049 393.572 166.071L384.562 171.278C382.798 172.297 383.02 174.078 385.055 175.255L393.078 179.892C395.113 181.069 398.194 181.197 399.958 180.178V180.178Z" fill="#D7DFF9"/>
<path fill-rule="evenodd" clip-rule="evenodd" d="M326.185 197.257L148.379 94.4885L260.713 29.5605L438.521 132.329L326.185 197.257ZM188.821 78.6839C187.591 78.6839 186.361 78.9552 185.423 79.4973L161.444 93.357C159.567 94.4424 159.567 96.2008 161.444 97.2855C162.382 97.8276 163.612 98.0989 164.842 98.0989C166.071 98.0989 167.301 97.8276 168.24 97.2855L192.219 83.4257C194.096 82.341 194.096 80.5826 192.219 79.4973C191.281 78.9552 190.051 78.6839 188.821 78.6839ZM261.811 36.4975C260.581 36.4975 259.351 36.769 258.413 37.3111L244.854 45.1482C242.977 46.2323 242.977 47.9915 244.854 49.0754C245.793 49.6181 247.022 49.8888 248.252 49.8888C249.482 49.8888 250.712 49.6181 251.65 49.0754L265.209 41.2389C267.086 40.1542 267.086 38.3957 265.209 37.3111C264.271 36.769 263.041 36.4975 261.811 36.4975Z" fill="#11377E"/>
<path d="M406.442 195.872L419.818 188.142C421.119 187.392 422.173 185.373 422.173 183.638C422.173 181.902 421.119 181.102 419.818 181.856L406.442 189.585C405.141 190.339 404.087 192.355 404.087 194.091C404.087 195.826 405.141 196.625 406.442 195.872Z" fill="#3C3B61"/>
<path d="M455.349 163.933C455.349 164.991 456.092 165.419 457.009 164.891C457.923 164.36 458.667 163.073 458.667 162.015C458.667 160.956 457.923 160.526 457.009 161.057C456.092 161.584 455.349 162.872 455.349 163.933Z" fill="#3C3B61"/>
<path d="M451.181 166.339C451.181 167.398 451.924 167.828 452.841 167.3C453.759 166.769 454.499 165.483 454.499 164.424C454.499 163.365 453.758 162.935 452.841 163.463C451.924 163.994 451.181 165.281 451.181 166.339Z" fill="#3C3B61"/>
<path d="M447.015 168.749C447.015 169.808 447.755 170.238 448.672 169.707C449.589 169.179 450.33 167.892 450.33 166.831C450.33 165.772 449.589 165.342 448.672 165.873C447.755 166.404 447.015 167.691 447.015 168.749Z" fill="#3C3B61"/>
<path d="M376.374 209.358C376.374 210.416 377.118 210.843 378.032 210.316C378.949 209.785 379.693 208.497 379.693 207.439C379.693 206.381 378.949 205.951 378.032 206.481C377.118 207.009 376.374 208.297 376.374 209.358Z" fill="#3C3B61"/>
<path d="M372.207 211.764C372.207 212.822 372.95 213.253 373.868 212.725C374.782 212.194 375.525 210.907 375.525 209.849C375.525 208.79 374.782 208.36 373.868 208.888C372.95 209.418 372.207 210.705 372.207 211.764Z" fill="#3C3B61"/>
<path d="M368.037 214.174C368.037 215.233 368.781 215.663 369.698 215.132C370.616 214.604 371.355 213.317 371.355 212.256C371.355 211.197 370.616 210.767 369.698 211.297C368.781 211.828 368.037 213.116 368.037 214.174Z" fill="#3C3B61"/>
<path fill-rule="evenodd" clip-rule="evenodd" d="M248.252 49.8883C247.022 49.8883 245.792 49.6176 244.854 49.0749C242.977 47.991 242.977 46.2319 244.854 45.1477L258.413 37.3106C259.351 36.7686 260.581 36.4971 261.81 36.4971C263.041 36.4971 264.27 36.7686 265.209 37.3106C267.085 38.3952 267.085 40.1537 265.209 41.2384L251.65 49.0749C250.712 49.6176 249.482 49.8883 248.252 49.8883Z" fill="url(#paint10_linear)"/>
<path fill-rule="evenodd" clip-rule="evenodd" d="M164.842 98.0986C163.612 98.0986 162.382 97.8273 161.444 97.2853C159.567 96.2005 159.567 94.4422 161.444 93.3567L185.423 79.497C186.361 78.9549 187.591 78.6836 188.821 78.6836C190.051 78.6836 191.281 78.9549 192.219 79.497C194.096 80.5823 194.096 82.3407 192.219 83.4254L168.24 97.2853C167.301 97.8273 166.071 98.0986 164.842 98.0986Z" fill="url(#paint11_linear)"/>
<path d="M272.44 63.126L276.841 67.543L272.44 71.96L280.081 69.4163L287.723 71.96L283.324 67.543L287.723 63.126L280.081 65.6703L272.44 63.126Z" fill="white"/>
<path d="M261.282 65.5107L263.307 67.543L261.282 69.5753L264.798 68.4052L268.314 69.5753L266.289 67.543L268.314 65.5107L264.798 66.6816L261.282 65.5107Z" fill="white"/>
<path d="M357.31 107.626L288.05 147.656L281.682 143.978L350.942 103.945L357.31 107.626Z" fill="white"/>
<path d="M373.58 108.748L289.99 157.06L283.622 153.382L367.212 105.066L373.58 108.748Z" fill="white"/>
<path d="M292.486 131.816L278.954 139.64L281.986 141.391L295.52 133.57L292.486 131.816Z" fill="white"/>
<path d="M317.961 117.093L304.43 124.916L307.462 126.667L320.993 118.845L317.961 117.093Z" fill="white"/>
<path d="M287.528 101.19L276.914 107.325L306.266 124.291L316.879 118.155L287.528 101.19Z" fill="white"/>
<path d="M313.004 86.4668L302.388 92.6011L331.743 109.566L342.355 103.431L313.004 86.4668Z" fill="white"/>
<path d="M262.054 115.914L251.439 122.049L280.791 139.015L291.407 132.877L262.054 115.914Z" fill="white"/>
<path d="M343.437 102.368L329.902 110.191L332.934 111.943L346.469 104.12L343.437 102.368Z" fill="white"/>
<path d="M261.059 113.652L247.525 121.476L250.557 123.227L264.09 115.405L261.059 113.652Z" fill="white"/>
<path d="M286.535 98.9287L273.001 106.751L276.033 108.503L289.567 100.681L286.535 98.9287Z" fill="white"/>
<path d="M312.011 84.2041L298.477 92.0263L301.508 93.7785L315.043 85.9563L312.011 84.2041Z" fill="white"/>
<path d="M273.112 98.9927C267.03 102.508 257.169 102.508 251.087 98.9927C245.005 95.4776 245.005 89.7782 251.087 86.2626C257.169 82.7476 267.03 82.7476 273.112 86.2632C279.194 89.7782 279.194 95.4776 273.112 98.9927ZM243.446 81.8468L227.614 121.009L235.301 125.45L318.89 77.1385L311.206 72.6953L243.446 81.8468V81.8468Z" fill="white"/>
<path d="M266.43 92.5572C265.997 92.3077 265.25 92.3388 264.188 92.6514L266.364 93.9096C266.669 93.6469 266.82 93.393 266.82 93.1491C266.82 92.9045 266.69 92.7082 266.43 92.5572V92.5572ZM257.674 91.9845C258.074 92.2166 258.762 92.1761 259.737 91.8629L257.756 90.717C257.442 90.9491 257.278 91.1773 257.268 91.4032C257.257 91.6283 257.393 91.8224 257.674 91.9845V91.9845ZM268.331 96.8301L266.869 95.9849C265.146 96.8176 263.306 97.2305 261.345 97.2243L260.841 95.4871C262.314 95.512 263.641 95.2831 264.822 94.8016L262.256 93.3182C261.757 93.4928 261.324 93.6344 260.955 93.7411C260.588 93.8471 260.143 93.9475 259.624 94.0412C259.103 94.1353 258.635 94.1803 258.218 94.1772C257.801 94.174 257.352 94.1147 256.87 93.9987C256.388 93.8826 255.936 93.7036 255.514 93.4591C254.669 92.9708 254.254 92.3682 254.271 91.6515C254.286 90.9347 254.777 90.2347 255.741 89.553L254.229 88.6798L255.773 87.7878L257.317 88.6804C258.758 88.0103 260.338 87.6536 262.06 87.6094L262.466 89.3279C261.394 89.359 260.371 89.5436 259.396 89.8818L261.686 91.2055C262.185 91.0302 262.623 90.8897 263.002 90.7831C263.382 90.6771 263.831 90.5767 264.351 90.4824C264.87 90.3889 265.344 90.3435 265.772 90.3465C266.2 90.3496 266.657 90.4076 267.145 90.5199C267.633 90.6329 268.087 90.8111 268.509 91.0551C269.441 91.594 269.912 92.2166 269.922 92.924C269.933 93.6313 269.424 94.3511 268.396 95.0835L269.874 95.938L268.331 96.8301H268.331Z" fill="white"/>
<path d="M280.411 244.469L226.428 213.264L129.018 156.966C125.252 154.787 119.144 154.787 115.377 156.966L24.9673 209.22H15.6729V217.15C15.7972 218.493 16.7247 219.819 18.4978 220.844L66.5718 248.629L176.348 312.078C180.116 314.256 186.223 314.256 189.99 312.078L286.87 256.084C288.729 255.011 289.664 253.608 289.688 252.201L289.695 244.469H280.411V244.469Z" fill="#71B92F"/>
<path d="M108.845 227.445C129.567 226.353 150.937 232.225 170.786 228.616C188.331 225.429 199.572 215.762 214.511 209.561C218.243 208.012 222.247 206.691 226.428 205.59L129.019 149.291C125.252 147.113 119.144 147.113 115.377 149.291L18.4978 205.285C14.7312 207.462 14.7312 210.992 18.4978 213.17L66.5719 240.955C77.4986 233.668 92.3706 228.318 108.845 227.445L108.845 227.445Z" fill="#71B92F"/>
<path d="M286.871 240.525L226.428 205.59C222.248 206.691 218.244 208.012 214.512 209.561C199.572 215.762 188.332 225.429 170.786 228.617C150.937 232.225 129.567 226.353 108.845 227.445C92.371 228.318 77.499 233.668 66.5723 240.955L176.35 304.404C180.117 306.582 186.224 306.582 189.99 304.404L286.871 248.41C290.637 246.232 290.637 242.703 286.871 240.525H286.871Z" fill="#95D661"/>
<path d="M117.348 170.704C115.752 169.78 114.928 168.718 114.877 167.516C114.823 166.318 115.594 165.253 117.191 164.332C118.787 163.408 120.623 162.962 122.704 162.993C124.782 163.023 126.62 163.499 128.217 164.424C130.18 165.558 130.788 166.9 130.043 168.446L127.177 167.883C127.386 167.492 127.413 167.087 127.256 166.662C127.097 166.238 126.757 165.872 126.231 165.57C125.276 165.018 124.163 164.75 122.893 164.768C121.622 164.786 120.488 165.085 119.491 165.662C118.494 166.238 117.98 166.894 117.947 167.626C117.915 168.362 118.378 169.005 119.333 169.557C119.858 169.859 120.484 170.061 121.215 170.152C121.945 170.247 122.651 170.231 123.334 170.103L124.326 171.75C121.607 172.168 119.28 171.82 117.348 170.704L117.348 170.704Z" fill="white"/>
<path d="M133.556 173.263C134.018 173.528 134.525 173.672 135.076 173.693C135.627 173.715 136.118 173.602 136.548 173.352C136.978 173.105 137.176 172.821 137.139 172.5C137.102 172.183 136.853 171.89 136.391 171.622L134.044 170.268L131.209 171.906L133.556 173.263H133.556ZM131.776 178.824L129.209 177.338L130.878 173.989L129.24 173.044L125.508 175.2L123.271 173.907L133.776 167.837L138.691 170.676C139.772 171.302 140.316 171.979 140.321 172.711C140.326 173.443 139.83 174.096 138.832 174.672C137.972 175.169 137.05 175.444 136.068 175.496C135.087 175.547 134.201 175.432 133.414 175.145L131.776 178.824L131.776 178.824Z" fill="white"/>
<path d="M140.832 184.058L133.398 179.76L143.903 173.69L151.337 177.985L149.368 179.123L144.171 176.121L141.95 177.402L147.037 180.346L145.068 181.481L139.981 178.543L137.603 179.916L142.8 182.92L140.832 184.058Z" fill="white"/>
<path d="M148.692 186.325C149.7 186.907 150.816 187.188 152.039 187.167C153.263 187.145 154.335 186.868 155.259 186.334C156.225 185.776 156.727 185.153 156.765 184.464C156.8 183.775 156.299 183.131 155.26 182.53L153.354 181.429L146.786 185.224L148.692 186.325V186.325ZM146.724 187.463L142.581 185.068L153.086 178.998L157.228 181.393C158.877 182.344 159.734 183.399 159.803 184.556C159.872 185.712 159.118 186.746 157.544 187.655C155.968 188.564 154.187 189 152.196 188.96C150.207 188.92 148.382 188.42 146.724 187.463L146.724 187.463Z" fill="white"/>
<path d="M156.126 192.898L153.89 191.605L164.395 185.535L166.631 186.825L156.126 192.898Z" fill="white"/>
<path d="M162.882 196.802L160.631 195.499L169.167 190.567L166.095 188.792L168.063 187.654L176.443 192.498L174.474 193.636L171.419 191.87L162.882 196.802Z" fill="white"/>
<path d="M176.302 204.776C174.706 203.855 173.881 202.793 173.83 201.591C173.776 200.39 174.548 199.328 176.144 198.404C177.74 197.482 179.577 197.037 181.657 197.068C183.735 197.098 185.573 197.574 187.17 198.495C189.133 199.63 189.741 200.972 188.996 202.518L186.129 201.954C186.339 201.567 186.367 201.161 186.208 200.734C186.051 200.31 185.709 199.947 185.184 199.642C184.229 199.09 183.117 198.825 181.846 198.843C180.575 198.861 179.441 199.157 178.444 199.733C177.447 200.31 176.932 200.966 176.9 201.701C176.869 202.433 177.331 203.077 178.286 203.632C178.811 203.934 179.438 204.132 180.169 204.226C180.898 204.321 181.605 204.303 182.286 204.178L183.279 205.825C180.56 206.243 178.234 205.895 176.302 204.776V204.776Z" fill="white"/>
<path d="M191.847 209.211L194.729 205.651L188.571 207.317L191.847 209.211H191.847ZM191.911 213.579L189.358 212.105L190.492 210.703L185.987 208.101L183.547 208.747L180.995 207.271L195.563 203.55L198.367 205.169L191.911 213.579V213.579Z" fill="white"/>
<path d="M203.171 213.5C203.633 213.765 204.139 213.908 204.691 213.929C205.242 213.951 205.733 213.838 206.164 213.588C206.594 213.341 206.791 213.057 206.754 212.737C206.717 212.42 206.468 212.127 206.006 211.858L203.659 210.504L200.824 212.142L203.171 213.5H203.171ZM201.391 219.06L198.824 217.578L200.493 214.226L198.855 213.28L195.123 215.436L192.887 214.147L203.392 208.073L208.306 210.913C209.386 211.539 209.931 212.215 209.935 212.948C209.941 213.679 209.445 214.332 208.447 214.909C207.586 215.406 206.665 215.68 205.683 215.732C204.701 215.784 203.816 215.668 203.029 215.382L201.391 219.06H201.391Z" fill="white"/>
<path d="M209.125 221.253C210.132 221.836 211.249 222.116 212.471 222.095C213.695 222.074 214.768 221.796 215.692 221.262C216.658 220.704 217.159 220.082 217.197 219.392C217.233 218.703 216.732 218.059 215.693 217.459L213.786 216.358L207.218 220.152L209.125 221.253V221.253ZM207.156 222.391L203.014 219.996L213.518 213.927L217.661 216.321C219.31 217.273 220.167 218.328 220.236 219.484C220.304 220.64 219.551 221.671 217.976 222.583C216.4 223.492 214.62 223.928 212.629 223.888C210.639 223.849 208.815 223.352 207.156 222.391V222.391Z" fill="white"/>
<path d="M61.2673 199.466C59.8231 198.63 59.1352 197.727 59.2062 196.757L61.5433 196.601C61.5172 197.327 61.9727 197.959 62.9086 198.502C63.4084 198.788 63.9293 198.947 64.4727 198.972C65.0148 198.996 65.4714 198.904 65.8391 198.691C66.2335 198.462 66.408 198.2 66.3644 197.901C66.3202 197.602 66.0529 197.312 65.5632 197.028C64.8359 196.607 63.986 196.391 63.0139 196.375L62.0556 195.427L67.0872 192.521L73.1025 195.997L71.4608 196.946L67.3101 194.545L65.1686 195.784C66.15 195.784 67.0379 196.012 67.8355 196.473C68.6143 196.925 69.0194 197.458 69.0505 198.071C69.0804 198.688 68.6673 199.243 67.8087 199.737C66.8809 200.274 65.8229 200.518 64.6371 200.463C63.45 200.411 62.3273 200.079 61.2673 199.466H61.2673Z" fill="white"/>
<path d="M68.9523 203.906C68.1802 203.461 67.627 202.991 67.2892 202.497C66.952 202.005 66.8237 201.536 66.9022 201.096L69.1224 200.938C69.1137 201.286 69.2384 201.64 69.4962 201.997C69.7549 202.353 70.1019 202.658 70.5398 202.912C71.0658 203.214 71.5755 203.39 72.0708 203.439C72.5657 203.488 72.9787 203.415 73.3122 203.223C73.6617 203.018 73.7781 202.79 73.6604 202.536C73.5414 202.28 73.1757 201.975 72.5631 201.621C72.0117 201.301 71.6396 201.096 71.4471 201.005L73.1276 200.035C73.2249 200.099 73.5838 200.312 74.205 200.672C75.2817 201.295 76.1316 201.426 76.7535 201.066C77.0862 200.874 77.1915 200.639 77.0681 200.362C76.946 200.081 76.6444 199.803 76.1622 199.526C75.3129 199.035 74.271 198.782 73.0354 198.766L73.2735 197.552C75.0238 197.491 76.6046 197.867 78.0147 198.684C79.0391 199.276 79.6315 199.865 79.7943 200.456C79.9561 201.045 79.674 201.551 78.9473 201.969C78.4209 202.274 77.7934 202.418 77.0626 202.405C76.331 202.393 75.6543 202.265 75.0331 202.015C75.4973 202.344 75.7552 202.741 75.8076 203.201C75.8605 203.659 75.5839 204.065 74.9808 204.413C74.2181 204.855 73.2828 205.031 72.1767 204.943C71.0684 204.855 69.9928 204.507 68.9523 203.906V203.906Z" fill="white"/>
<path d="M76.7395 208.225L74.6914 207.042L84.9488 204.739L80.5355 202.189L82.1772 201.24L88.7585 205.044L87.4575 205.794L76.7395 208.225Z" fill="white"/>
<path d="M85.881 211.779C86.3539 212.05 86.8642 212.194 87.4125 212.206C87.9596 212.218 88.3982 212.13 88.7311 211.937C89.1604 211.69 89.3293 211.41 89.2371 211.098C89.1453 210.788 88.8713 210.501 88.417 210.238C87.716 209.833 86.8704 209.662 85.881 209.729C85.4341 210.037 85.1825 210.376 85.1258 210.742C85.0691 211.108 85.3201 211.456 85.881 211.779H85.881ZM84.3314 212.795C83.0702 212.066 82.545 211.276 82.7549 210.428C82.9661 209.577 83.7356 208.766 85.0666 207.996C86.4237 207.213 87.8823 206.792 89.4407 206.731C90.9997 206.67 92.4141 207.005 93.6834 207.741C94.6997 208.326 95.2599 209 95.3651 209.76L93.0928 210.102C93.066 209.558 92.7121 209.092 92.0285 208.695C91.3893 208.326 90.6246 208.161 89.7367 208.198C88.8469 208.238 88.0532 208.457 87.3522 208.863C87.2737 208.908 87.2169 208.945 87.1815 208.976C87.716 208.921 88.2981 208.948 88.9286 209.061C89.5585 209.171 90.1019 209.357 90.5574 209.623C91.3905 210.104 91.8423 210.656 91.9169 211.282C91.9912 211.907 91.5818 212.478 90.6888 212.993C89.8222 213.493 88.7934 213.728 87.602 213.7C86.4106 213.667 85.3208 213.368 84.3314 212.795L84.3314 212.795Z" fill="white"/>
<path d="M106.307 221.32L109.958 219.21L103.942 219.954L106.307 221.32ZM104.718 224.395L102.853 223.318L104.665 222.269L100.476 219.847L101.946 218.999L110.904 217.843L113.479 219.332L108.172 222.4L109.301 223.053L107.66 224.001L106.53 223.349L104.718 224.395H104.718Z" fill="white"/>
<path d="M113.386 229.407L106.792 225.594L108.25 224.752C111.515 225.03 113.75 225.176 114.949 225.185C116.149 225.195 117.006 225.052 117.522 224.752C117.882 224.545 118.021 224.301 117.942 224.023C117.864 223.746 117.633 223.495 117.248 223.273C116.327 222.739 115.206 222.483 113.885 222.499L114.055 221.168C114.939 221.135 115.802 221.22 116.643 221.428C117.483 221.635 118.223 221.925 118.863 222.294C119.826 222.849 120.371 223.459 120.497 224.118C120.625 224.78 120.264 225.356 119.414 225.848C118.696 226.262 117.711 226.503 116.459 226.576C115.207 226.647 113.539 226.586 111.454 226.393L115.027 228.458L113.386 229.407V229.407Z" fill="white"/>
<path d="M122.62 229.368C123.321 229.773 124.166 229.947 125.156 229.892C125.601 229.584 125.855 229.245 125.917 228.876C125.978 228.504 125.725 228.156 125.156 227.827C124.683 227.556 124.174 227.412 123.632 227.403C123.088 227.391 122.651 227.483 122.318 227.675C121.889 227.925 121.72 228.203 121.813 228.514C121.904 228.824 122.173 229.111 122.62 229.368V229.368ZM117.366 231.875C116.324 231.271 115.769 230.6 115.698 229.862L117.958 229.514C117.984 230.054 118.338 230.524 119.021 230.917C119.704 231.314 120.484 231.481 121.359 231.426C122.235 231.372 123.01 231.149 123.684 230.758L123.881 230.643C123.337 230.694 122.752 230.664 122.122 230.554C121.491 230.441 120.947 230.255 120.492 229.993C119.661 229.511 119.205 228.956 119.126 228.327C119.048 227.702 119.456 227.128 120.348 226.613C121.215 226.113 122.246 225.878 123.442 225.911C124.636 225.945 125.729 226.244 126.718 226.818C127.568 227.309 128.074 227.845 128.235 228.422C128.398 229.005 128.272 229.557 127.861 230.081C127.45 230.609 126.814 231.121 125.956 231.616C124.609 232.397 123.157 232.817 121.602 232.878C120.047 232.943 118.636 232.607 117.366 231.875H117.366Z" fill="white"/>
<path d="M131.276 233.674C131.687 233.851 132.135 233.976 132.622 234.056C133.106 234.135 133.494 234.089 133.784 233.925C134.09 233.747 134.198 233.528 134.106 233.268C134.014 233.006 133.748 232.75 133.311 232.497C132.874 232.243 132.427 232.087 131.972 232.033C131.515 231.978 131.135 232.039 130.828 232.216C130.539 232.381 130.465 232.61 130.605 232.89C130.745 233.173 130.969 233.436 131.276 233.674H131.276ZM127.467 235.873C127.921 236.139 128.405 236.304 128.918 236.37C129.429 236.441 129.843 236.383 130.159 236.2C130.482 236.014 130.568 235.76 130.415 235.437C130.262 235.117 130.023 234.833 129.699 234.583C129.27 234.397 128.778 234.259 128.222 234.171C127.666 234.082 127.224 234.132 126.901 234.318C126.586 234.5 126.485 234.739 126.598 235.032C126.713 235.324 127.003 235.605 127.467 235.873ZM125.864 236.8C124.873 236.23 124.25 235.623 123.992 234.989C123.734 234.354 123.994 233.811 124.774 233.363C125.282 233.067 125.91 232.908 126.658 232.881C127.406 232.85 128.154 232.942 128.897 233.149C128.145 232.247 128.254 231.517 129.226 230.956C129.988 230.514 130.899 230.376 131.958 230.538C133.018 230.7 134.003 231.045 134.914 231.569C135.492 231.905 135.952 232.256 136.292 232.625C136.633 232.994 136.796 233.384 136.779 233.793C136.762 234.205 136.494 234.558 135.977 234.858C135.014 235.412 133.745 235.474 132.169 235.04C132.528 235.47 132.685 235.901 132.641 236.337C132.597 236.773 132.322 237.136 131.814 237.429C131.043 237.874 130.104 238.023 128.997 237.874C127.888 237.725 126.844 237.368 125.864 236.8H125.864Z" fill="white"/>
<path d="M144.621 247.458L142.756 246.381L149.113 242.706L146.17 242.721L146.222 241.461L151.753 241.455L153.382 242.394L144.621 247.458Z" fill="white"/>
<path d="M150.019 250.579L148.154 249.503L154.511 245.827L151.569 245.842L151.621 244.582L157.152 244.576L158.78 245.516L150.019 250.579Z" fill="white"/>
<path d="M154.446 253.321C153.674 252.875 153.121 252.406 152.783 251.911C152.446 251.417 152.318 250.95 152.396 250.511L154.616 250.353C154.607 250.7 154.731 251.055 154.99 251.408C155.248 251.768 155.595 252.07 156.033 252.326C156.559 252.628 157.07 252.805 157.565 252.851C158.06 252.9 158.473 252.83 158.806 252.638C159.156 252.433 159.272 252.204 159.155 251.948C159.035 251.695 158.67 251.39 158.057 251.033C157.506 250.716 157.133 250.511 156.941 250.42L158.622 249.447C158.718 249.514 159.078 249.727 159.699 250.085C160.776 250.706 161.625 250.841 162.247 250.481C162.58 250.289 162.685 250.054 162.562 249.773C162.44 249.496 162.138 249.218 161.657 248.941C160.807 248.449 159.765 248.196 158.529 248.181L158.766 246.964C160.517 246.906 162.098 247.281 163.509 248.095C164.532 248.687 165.126 249.279 165.288 249.867C165.45 250.459 165.168 250.963 164.441 251.384C163.916 251.686 163.287 251.832 162.557 251.82C161.825 251.807 161.148 251.676 160.527 251.429C160.991 251.759 161.248 252.152 161.302 252.613C161.355 253.074 161.078 253.479 160.474 253.827C159.712 254.269 158.777 254.443 157.67 254.357C156.562 254.266 155.487 253.921 154.446 253.321V253.321Z" fill="white"/>
<path d="M165.806 259.706L159.213 255.893L160.671 255.051C163.937 255.328 166.17 255.475 167.37 255.484C168.57 255.493 169.427 255.35 169.944 255.051C170.304 254.844 170.442 254.6 170.364 254.322C170.285 254.045 170.054 253.794 169.668 253.572C168.749 253.038 167.628 252.781 166.306 252.797L166.476 251.467C167.36 251.433 168.224 251.519 169.065 251.726C169.904 251.934 170.644 252.223 171.284 252.592C172.247 253.147 172.791 253.758 172.919 254.416C173.046 255.079 172.685 255.655 171.836 256.146C171.118 256.558 170.132 256.802 168.88 256.875C167.629 256.945 165.96 256.885 163.876 256.689L167.448 258.757L165.806 259.706Z" fill="white"/>
<path d="M182.185 267.441C182.658 267.712 183.169 267.856 183.716 267.868C184.264 267.883 184.703 267.792 185.036 267.6C185.465 267.353 185.634 267.072 185.542 266.761C185.451 266.449 185.176 266.163 184.721 265.9C184.021 265.495 183.176 265.324 182.185 265.391C181.74 265.699 181.487 266.038 181.431 266.404C181.374 266.773 181.625 267.117 182.185 267.441L182.185 267.441ZM180.636 268.456C179.375 267.727 178.85 266.941 179.059 266.089C179.271 265.238 180.041 264.43 181.372 263.659C182.729 262.874 184.187 262.453 185.745 262.393C187.304 262.332 188.719 262.667 189.988 263.402C191.004 263.988 191.564 264.662 191.669 265.422L189.397 265.763C189.37 265.22 189.017 264.754 188.334 264.357C187.694 263.988 186.93 263.823 186.041 263.86C185.152 263.899 184.358 264.119 183.657 264.525C183.578 264.57 183.521 264.61 183.486 264.641C184.021 264.583 184.603 264.61 185.234 264.723C185.863 264.833 186.407 265.022 186.863 265.284C187.694 265.766 188.147 266.318 188.222 266.944C188.297 267.569 187.886 268.139 186.993 268.655C186.127 269.155 185.098 269.39 183.907 269.362C182.716 269.332 181.625 269.03 180.636 268.456L180.636 268.456Z" fill="white"/>
<path d="M190.172 272.056C190.644 272.331 191.154 272.471 191.702 272.486C192.25 272.498 192.69 272.407 193.022 272.215C193.451 271.968 193.62 271.687 193.527 271.376C193.435 271.065 193.162 270.778 192.706 270.516C192.006 270.11 191.162 269.939 190.171 270.006C189.726 270.314 189.473 270.653 189.416 271.019C189.359 271.388 189.611 271.733 190.172 272.056L190.172 272.056ZM188.621 273.075C187.361 272.346 186.836 271.556 187.046 270.705C187.256 269.854 188.026 269.046 189.357 268.277C190.714 267.49 192.172 267.069 193.731 267.008C195.29 266.947 196.704 267.282 197.974 268.018C198.99 268.604 199.55 269.278 199.655 270.037L197.383 270.379C197.356 269.839 197.002 269.369 196.319 268.975C195.679 268.604 194.915 268.439 194.027 268.478C193.137 268.515 192.342 268.738 191.643 269.14C191.564 269.186 191.507 269.225 191.471 269.256C192.007 269.198 192.588 269.229 193.219 269.338C193.849 269.451 194.393 269.637 194.847 269.9C195.68 270.381 196.132 270.934 196.208 271.559C196.282 272.185 195.872 272.755 194.979 273.27C194.111 273.773 193.083 274.009 191.892 273.978C190.701 273.947 189.611 273.646 188.621 273.075Z" fill="white"/>
<path d="M197.58 275.426C197.335 275.893 197.51 276.295 198.106 276.64C198.701 276.985 199.4 277.086 200.201 276.942C201.002 276.796 201.836 276.473 202.703 275.972C203.57 275.472 204.127 274.99 204.371 274.533C204.616 274.072 204.441 273.666 203.846 273.325C203.25 272.98 202.552 272.876 201.75 273.016C200.95 273.157 200.115 273.474 199.248 273.977C198.381 274.478 197.826 274.96 197.58 275.426V275.426ZM199.164 278.385C198.152 278.321 197.247 278.059 196.451 277.598C195.654 277.137 195.198 276.613 195.085 276.027C194.971 275.438 195.124 274.883 195.544 274.355C195.964 273.831 196.57 273.34 197.357 272.882C198.145 272.428 198.994 272.08 199.905 271.836C200.816 271.592 201.777 271.507 202.788 271.574C203.8 271.641 204.704 271.906 205.501 272.367C206.297 272.827 206.754 273.349 206.867 273.932C206.98 274.514 206.83 275.069 206.413 275.597C205.998 276.128 205.396 276.619 204.608 277.073C203.819 277.531 202.968 277.879 202.052 278.117C201.138 278.358 200.175 278.446 199.164 278.385L199.164 278.385Z" fill="white"/>
<path d="M205.212 282.478L203.348 281.402L209.704 277.726L206.762 277.741L206.814 276.482L212.345 276.473L213.973 277.415L205.212 282.478Z" fill="white"/>
<path d="M49.7605 206.085C48.9791 205.633 48.5746 205.112 48.5491 204.523C48.5235 203.938 48.9012 203.416 49.6831 202.965C50.4645 202.513 51.3649 202.293 52.3824 202.308C53.4005 202.324 54.301 202.555 55.0823 203.007C56.0444 203.565 56.3422 204.221 55.977 204.981L54.5738 204.703C54.6761 204.511 54.689 204.313 54.6113 204.105C54.5346 203.898 54.3676 203.718 54.1103 203.571C53.6416 203.3 53.0971 203.169 52.4752 203.178C51.8528 203.187 51.297 203.333 50.8085 203.614C50.3206 203.898 50.0688 204.218 50.0526 204.578C50.0377 204.938 50.2631 205.253 50.7318 205.524C50.9885 205.673 51.2958 205.768 51.6527 205.813C52.011 205.862 52.3568 205.853 52.6909 205.792L53.1768 206.598C51.8453 206.802 50.7062 206.631 49.7605 206.085L49.7605 206.085Z" fill="white"/>
<path d="M57.3723 208.256L58.783 206.511L55.7679 207.328L57.3723 208.256V208.256ZM57.4035 210.394L56.1542 209.671L56.7093 208.985L54.5042 207.71L53.3073 208.027L52.0586 207.304L59.1938 205.483L60.5664 206.276L57.4035 210.394H57.4035Z" fill="white"/>
<path d="M62.9186 210.355C63.1447 210.487 63.3935 210.557 63.6639 210.569C63.933 210.578 64.1729 210.523 64.3841 210.398C64.5948 210.279 64.6908 210.139 64.6739 209.983C64.6559 209.827 64.5331 209.684 64.3069 209.553L63.1579 208.888L61.7689 209.69L62.9187 210.355L62.9186 210.355ZM62.0469 213.079L60.7895 212.353L61.6069 210.712L60.8043 210.248L58.9769 211.307L57.8809 210.672L63.0265 207.698L65.434 209.089C65.963 209.394 66.2285 209.727 66.2311 210.087C66.2341 210.444 65.9906 210.764 65.502 211.044C65.0807 211.289 64.6283 211.426 64.1485 211.45C63.6681 211.475 63.2345 211.417 62.8494 211.279L62.0468 213.079H62.0469Z" fill="white"/>
<path d="M65.8336 214.152C66.3277 214.439 66.8742 214.576 67.4729 214.564C68.0719 214.555 68.5977 214.421 69.05 214.158C69.5236 213.884 69.7698 213.579 69.7873 213.24C69.804 212.905 69.5591 212.588 69.05 212.294L68.1173 211.755L64.9014 213.616L65.8336 214.152ZM64.8689 214.71L62.8408 213.539L67.9858 210.565L70.0145 211.737C70.8222 212.203 71.2416 212.719 71.2758 213.286C71.3088 213.853 70.941 214.36 70.1691 214.805C69.3977 215.251 68.5247 215.464 67.5508 215.446C66.5756 215.424 65.6822 215.18 64.8689 214.71L64.8689 214.71Z" fill="white"/>
<path d="M73.008 219.414L71.9051 218.777L74.0642 217.529L71.6348 216.126L69.4751 217.373L68.3789 216.739L73.5245 213.765L74.6199 214.399L72.5992 215.567L75.0287 216.971L77.0501 215.802L78.1529 216.44L73.008 219.414Z" fill="white"/>
<path d="M76.6822 219.97C76.6485 220.317 76.8654 220.628 77.334 220.897C77.8019 221.168 78.3396 221.297 78.9459 221.278C79.5534 221.26 80.1012 221.111 80.5891 220.826C81.0775 220.546 81.3374 220.229 81.3685 219.878C81.399 219.528 81.1803 219.216 80.7124 218.947C80.2445 218.676 79.7086 218.548 79.1041 218.569C78.501 218.587 77.9539 218.74 77.466 219.021C76.9769 219.305 76.7164 219.618 76.6822 219.97ZM76.3626 221.461C75.5862 221.013 75.1955 220.497 75.1905 219.914C75.1855 219.332 75.568 218.816 76.3388 218.371C77.1109 217.926 78.0007 217.703 79.0089 217.706C80.0163 217.709 80.9081 217.935 81.6845 218.384C82.4665 218.835 82.8608 219.353 82.8684 219.933C82.8765 220.512 82.4919 221.031 81.7162 221.479C80.9392 221.928 80.0482 222.151 79.0438 222.144C78.0368 222.141 77.1439 221.913 76.3626 221.461H76.3626Z" fill="white"/>
<path d="M83.189 225.298L79.9189 223.408L85.0646 220.437L86.16 221.068L81.9789 223.484L84.1535 224.743L83.189 225.298Z" fill="white"/>
<path d="M86.9456 226.356C87.4391 226.64 87.9855 226.777 88.5843 226.768C89.1838 226.756 89.7096 226.622 90.1621 226.36C90.6349 226.085 90.881 225.78 90.8992 225.444C90.9159 225.106 90.6704 224.792 90.1621 224.496L89.2286 223.956L86.0121 225.817L86.9456 226.356V226.356ZM85.981 226.912L83.9521 225.741L89.0978 222.767L91.1266 223.937C91.9334 224.405 92.3521 224.923 92.387 225.487C92.4201 226.054 92.0519 226.561 91.2797 227.006C90.509 227.452 89.6361 227.665 88.6616 227.647C87.6871 227.625 86.7935 227.381 85.981 226.912H85.981Z" fill="white"/>
<path d="M93.132 231.045L89.4912 228.94L94.6368 225.966L98.2782 228.071L97.3136 228.629L94.7677 227.158L93.6796 227.787L96.1714 229.227L95.2075 229.785L92.7163 228.342L91.551 229.016L94.0972 230.489L93.132 231.045Z" fill="white"/>
<path d="M99.0237 231.225C99.2506 231.353 99.498 231.426 99.7684 231.435C100.038 231.445 100.279 231.39 100.489 231.268C100.7 231.145 100.797 231.009 100.779 230.853C100.761 230.695 100.639 230.554 100.413 230.422L99.2632 229.758L97.8748 230.56L99.0237 231.225H99.0237ZM98.1521 233.949L96.8953 233.223L97.7134 231.582L96.9109 231.119L95.0827 232.174L93.9873 231.539L99.1329 228.565L101.539 229.956C102.069 230.264 102.334 230.596 102.338 230.954C102.339 231.314 102.096 231.634 101.608 231.915C101.186 232.159 100.735 232.293 100.255 232.317C99.7734 232.344 99.3403 232.286 98.9553 232.146L98.1521 233.949H98.1521Z" fill="white"/>
<path d="M107.501 239.351L106.444 238.741L107.348 235.382L103.993 237.322L102.896 236.691L108.042 233.714L109.168 234.367L108.32 237.612L111.553 235.746L112.647 236.377L107.501 239.351Z" fill="white"/>
<path d="M113.286 240.575L114.698 238.829L111.682 239.644L113.286 240.575V240.575ZM113.318 242.712L112.068 241.989L112.624 241.303L110.418 240.028L109.222 240.346L107.973 239.623L115.108 237.799L116.48 238.595L113.318 242.712L113.318 242.712Z" fill="white"/>
<path d="M119.372 246.21L118.269 245.573L121.871 243.492L116.819 244.735L116.34 244.459L118.492 241.541L114.89 243.621L113.795 242.989L118.941 240.016L120.475 240.903L118.616 243.42L122.974 242.346L124.517 243.236L119.372 246.21Z" fill="white"/>
<path d="M124.03 248.904L120.39 246.799L125.535 243.825L129.176 245.93L128.211 246.488L125.666 245.018L124.578 245.647L127.07 247.086L126.106 247.642L123.614 246.202L122.45 246.875L124.995 248.346L124.03 248.904Z" fill="white"/>
<path d="M110.63 202.54L82.1732 186.092C80.4023 185.071 80.6242 183.284 82.6685 182.1L99.3801 172.443C101.425 171.259 104.518 171.131 106.288 172.156L134.745 188.603C136.516 189.625 136.294 191.413 134.249 192.596L117.538 202.253C115.493 203.437 112.4 203.565 110.63 202.54Z" fill="#FFF06F"/>
<path d="M174.567 290.678V283.339C174.567 282.421 175.856 281.676 177.446 281.676H190.142C191.732 281.676 193.021 282.421 193.021 283.339V290.678C193.021 291.596 191.733 292.34 190.143 292.34H177.446C175.856 292.34 174.567 291.596 174.567 290.678Z" fill="#FFF06F"/>
<path d="M173.175 282.533C173.175 281.615 174.464 280.871 176.053 280.871H182.441V277.223C182.441 276.305 181.153 275.561 179.564 275.561H166.866C165.277 275.561 163.988 276.305 163.988 277.223L163.989 284.562C163.988 285.48 165.277 286.227 166.866 286.227L173.175 286.224V282.533Z" fill="#FF544A"/>
<path d="M127.065 18.6953C127.064 18.6947 51.3289 18.4738 23.2899 67.8178C-4.74904 117.162 56.2945 146.546 68.3186 152L69.4866 151.258C69.4866 151.258 22.8343 126.131 34.5506 88.6677C46.2663 51.2041 105.845 40.6411 119.185 43.8766L112.47 65.3384L174 39.3024L132.915 0L127.065 18.6953L127.065 18.6953Z" fill="#71B92F"/>
<path d="M306.447 314.876C306.45 314.876 370.698 329.048 419.312 296.169C467.929 263.289 430.818 229.337 423.34 222.907L421.972 223.264C421.972 223.264 448.996 251.272 420.217 278.004C391.442 304.737 335.505 301.87 325.795 296.907L342.282 281.594L276.914 290.303L292.083 328.215L306.447 314.876V314.876Z" fill="#71B92F"/>
<path d="M222.531 349C215.909 349 209.286 347.538 204.232 344.619C194.127 338.778 194.127 329.307 204.232 323.465C209.285 320.547 215.907 319.085 222.529 319.085C223.365 319.085 224.201 319.109 225.033 319.156C226.081 318.234 227.305 317.362 228.705 316.553C234.265 313.338 241.552 311.731 248.84 311.731C256.127 311.731 263.414 313.338 268.974 316.553C280.093 322.981 280.093 333.4 268.974 339.827C263.423 343.036 256.152 344.631 248.878 344.631C246.456 344.631 244.034 344.454 241.676 344.104C241.401 344.278 241.121 344.449 240.829 344.619C235.776 347.538 229.153 349 222.531 349H222.531Z" fill="#D3D9F3"/>
<path fill-rule="evenodd" clip-rule="evenodd" d="M272.314 320.946H269.783C268.693 319.705 267.255 318.537 265.458 317.499C256.317 312.216 241.498 312.216 232.358 317.499C230.561 318.537 229.123 319.702 228.033 320.946H225.503V327.065C225.504 330.527 227.789 333.989 232.358 336.63C241.499 341.914 256.318 341.914 265.459 336.63C270.029 333.989 272.314 330.527 272.314 327.065V320.946Z" fill="url(#paint12_linear)"/>
<path d="M265.459 330.524C256.319 335.806 241.499 335.806 232.358 330.524C223.218 325.24 223.218 316.675 232.358 311.392C241.498 306.109 256.318 306.109 265.458 311.392C274.599 316.675 274.599 325.24 265.459 330.524Z" fill="#FFE200"/>
<path d="M263.068 329.169C255.211 333.711 242.471 333.711 234.613 329.169C226.756 324.628 226.755 317.264 234.612 312.722C242.47 308.18 255.21 308.18 263.067 312.722C270.925 317.264 270.925 324.628 263.068 329.169Z" fill="#FFBB00"/>
<path d="M248.98 309.319C244.372 309.529 239.866 310.649 236.342 312.686C228.484 317.228 228.484 324.591 236.342 329.133C240.235 331.381 245.327 332.516 250.429 332.537C244.764 332.793 238.947 331.674 234.613 329.169C226.756 324.628 226.755 317.264 234.612 312.723C238.577 310.432 243.784 309.297 248.98 309.319V309.319Z" fill="#FF9418"/>
<path d="M244.619 331.297L266.753 318.506C266.429 317.708 265.949 316.946 265.333 316.229L240.681 330.477C241.921 330.833 243.24 331.11 244.619 331.297Z" fill="#FFE200"/>
<path d="M232.768 326.123L257.797 311.656C255.917 311.05 253.834 310.628 251.622 310.434L230.65 322.553C230.986 323.832 231.717 325.036 232.768 326.123Z" fill="#FFE200"/>
<path d="M239.383 330.068L264.623 315.479C264.252 315.122 263.845 314.778 263.405 314.449L237.599 329.363C238.168 329.617 238.763 329.853 239.383 330.068V330.068Z" fill="#FFE200"/>
<path d="M235.257 328.117L261.248 313.094C260.438 312.667 259.562 312.281 258.629 311.941L233.262 326.604C233.849 327.142 234.517 327.649 235.257 328.117V328.117Z" fill="#FFE200"/>
<path fill-rule="evenodd" clip-rule="evenodd" d="M241.796 314.519L239.414 315.376C237.969 314.574 236.222 313.964 234.181 313.591C223.795 311.709 209.846 316.718 203.024 324.78C201.683 326.366 200.723 327.949 200.115 329.486L197.734 330.34L199.798 336.1C200.966 339.36 204.284 341.846 209.477 342.789C219.863 344.671 233.812 339.662 240.634 331.6C244.045 327.568 245.028 323.536 243.86 320.277L241.796 314.519V314.519Z" fill="url(#paint13_linear)"/>
<path d="M238.575 325.854C231.753 333.916 217.804 338.925 207.418 337.042C197.033 335.158 194.143 327.095 200.964 319.034C207.786 310.972 221.736 305.964 232.121 307.845C242.507 309.731 245.396 317.792 238.575 325.854Z" fill="#FFE200"/>
<path d="M235.867 325.384C230.003 332.317 218.011 336.621 209.083 335.001C200.155 333.385 197.672 326.454 203.536 319.524C209.4 312.59 221.391 308.287 230.32 309.906C239.247 311.523 241.731 318.453 235.867 325.384Z" fill="#FFBB00"/>
<path d="M215.911 311.462C211.645 313.216 207.78 315.793 205.151 318.902C199.286 325.835 201.77 332.765 210.698 334.382C215.122 335.184 220.296 334.531 225.106 332.826C219.86 334.983 214.007 335.895 209.083 335.001C200.155 333.385 197.672 326.454 203.536 319.521C206.494 316.025 211.014 313.197 215.911 311.462V311.462Z" fill="#FF9418"/>
<path d="M219.219 333.626L235.738 314.103C235.164 313.462 234.455 312.907 233.634 312.439L215.233 334.186C216.521 334.101 217.857 333.916 219.219 333.626V333.626Z" fill="#FFE200"/>
<path d="M206.317 332.76L224.998 310.682C223.024 310.746 220.921 311.053 218.773 311.618L203.121 330.115C203.868 331.206 204.962 332.092 206.317 332.76L206.317 332.76Z" fill="#FFE200"/>
<path d="M213.874 334.238L232.715 311.973C232.245 311.762 231.745 311.576 231.22 311.415L211.96 334.178C212.581 334.225 213.22 334.245 213.874 334.238V334.238Z" fill="#FFE200"/>
<path d="M209.333 333.797L228.733 310.869C227.827 310.74 226.873 310.673 225.881 310.669L206.944 333.046C207.679 333.355 208.479 333.606 209.333 333.797H209.333Z" fill="#FFE200"/>
</g>
<defs>
<linearGradient id="paint0_linear" x1="78.41" y1="117.617" x2="125.221" y2="117.617" gradientUnits="userSpaceOnUse">
<stop stop-color="#FFBB00"/>
<stop offset="0.988235" stop-color="#FF9418"/>
<stop offset="1" stop-color="#FF9418"/>
</linearGradient>
<linearGradient id="paint1_linear" x1="78.41" y1="110.272" x2="125.221" y2="110.272" gradientUnits="userSpaceOnUse">
<stop stop-color="#FFBB00"/>
<stop offset="0.988235" stop-color="#FF9418"/>
<stop offset="1" stop-color="#FF9418"/>
</linearGradient>
<linearGradient id="paint2_linear" x1="78.41" y1="102.924" x2="125.221" y2="102.924" gradientUnits="userSpaceOnUse">
<stop stop-color="#FFBB00"/>
<stop offset="0.988235" stop-color="#FF9418"/>
<stop offset="1" stop-color="#FF9418"/>
</linearGradient>
<linearGradient id="paint3_linear" x1="78.41" y1="95.5762" x2="125.221" y2="95.5762" gradientUnits="userSpaceOnUse">
<stop stop-color="#FFBB00"/>
<stop offset="0.988235" stop-color="#FF9418"/>
<stop offset="1" stop-color="#FF9418"/>
</linearGradient>
<linearGradient id="paint4_linear" x1="78.41" y1="88.2306" x2="125.221" y2="88.2306" gradientUnits="userSpaceOnUse">
<stop stop-color="#FFBB00"/>
<stop offset="0.988235" stop-color="#FF9418"/>
<stop offset="1" stop-color="#FF9418"/>
</linearGradient>
<linearGradient id="paint5_linear" x1="58.2209" y1="132.533" x2="105.031" y2="132.533" gradientUnits="userSpaceOnUse">
<stop stop-color="#FFBB00"/>
<stop offset="0.988235" stop-color="#FF9418"/>
<stop offset="1" stop-color="#FF9418"/>
</linearGradient>
<linearGradient id="paint6_linear" x1="58.2209" y1="125.187" x2="105.031" y2="125.187" gradientUnits="userSpaceOnUse">
<stop stop-color="#FFBB00"/>
<stop offset="0.988235" stop-color="#FF9418"/>
<stop offset="1" stop-color="#FF9418"/>
</linearGradient>
<linearGradient id="paint7_linear" x1="58.2209" y1="117.84" x2="105.031" y2="117.84" gradientUnits="userSpaceOnUse">
<stop stop-color="#FFBB00"/>
<stop offset="0.988235" stop-color="#FF9418"/>
<stop offset="1" stop-color="#FF9418"/>
</linearGradient>
<linearGradient id="paint8_linear" x1="464.014" y1="202.413" x2="510.825" y2="202.413" gradientUnits="userSpaceOnUse">
<stop stop-color="#FFBB00"/>
<stop offset="0.988235" stop-color="#FF9418"/>
<stop offset="1" stop-color="#FF9418"/>
</linearGradient>
<linearGradient id="paint9_linear" x1="464.014" y1="195.067" x2="510.825" y2="195.067" gradientUnits="userSpaceOnUse">
<stop stop-color="#FFBB00"/>
<stop offset="0.988235" stop-color="#FF9418"/>
<stop offset="1" stop-color="#FF9418"/>
</linearGradient>
<linearGradient id="paint10_linear" x1="431.379" y1="113.408" x2="152.531" y2="113.408" gradientUnits="userSpaceOnUse">
<stop stop-color="#9BB0FF"/>
<stop offset="0.988235" stop-color="#A1ECFF"/>
<stop offset="1" stop-color="#A1ECFF"/>
</linearGradient>
<linearGradient id="paint11_linear" x1="431.407" y1="113.408" x2="149.153" y2="113.408" gradientUnits="userSpaceOnUse">
<stop stop-color="#9BB0FF"/>
<stop offset="0.988235" stop-color="#A1ECFF"/>
<stop offset="1" stop-color="#A1ECFF"/>
</linearGradient>
<linearGradient id="paint12_linear" x1="225.503" y1="327.065" x2="272.314" y2="327.065" gradientUnits="userSpaceOnUse">
<stop stop-color="#FFBB00"/>
<stop offset="0.988235" stop-color="#FF9418"/>
<stop offset="1" stop-color="#FF9418"/>
</linearGradient>
<linearGradient id="paint13_linear" x1="199.767" y1="335.386" x2="243.19" y2="321.02" gradientUnits="userSpaceOnUse">
<stop stop-color="#FFBB00"/>
<stop offset="0.988235" stop-color="#FF9418"/>
<stop offset="1" stop-color="#FF9418"/>
</linearGradient>
<clipPath id="clip0">
<rect width="515" height="349" fill="white"/>
</clipPath>
</defs>
</svg>
