<svg width="408" height="484" viewBox="0 0 408 484" fill="none" xmlns="http://www.w3.org/2000/svg">
<path fill-rule="evenodd" clip-rule="evenodd" d="M275.413 405.433L153.016 332.965L170.788 322.734L293.186 395.209L275.413 405.433Z" fill="#D6D8E5" fill-opacity="0.301961"/>
<path fill-rule="evenodd" clip-rule="evenodd" d="M275.184 387.484L185.937 336.154C178.379 331.804 172.246 320.145 172.246 310.1V62.1159C172.253 52.0791 178.379 47.4623 185.937 51.7948L275.184 103.141C282.743 107.482 288.869 119.15 288.869 129.187V377.171C288.869 387.217 282.743 391.833 275.184 387.484V387.484Z" fill="#B1B4C4"/>
<path fill-rule="evenodd" clip-rule="evenodd" d="M276.709 391.955L283.788 388.393L277.002 376.814L276.709 391.955Z" fill="#B1B4C4"/>
<path fill-rule="evenodd" clip-rule="evenodd" d="M170.862 54.2861L177.37 50.8864L176.059 60.4367L170.862 54.2861Z" fill="#B1B4C4"/>
<path fill-rule="evenodd" clip-rule="evenodd" d="M269.493 390.316L180.247 339.035C172.688 334.686 166.563 323.018 166.563 312.981V64.9488C166.563 54.9115 172.688 50.2947 180.247 54.6436L269.493 105.973C277.052 110.322 283.177 121.982 283.177 132.028V380.011C283.177 390.056 277.051 394.665 269.493 390.316Z" fill="#616E84"/>
<path fill-rule="evenodd" clip-rule="evenodd" d="M282.215 132.661V380.635C282.215 390.689 276.089 395.29 268.532 390.949L233.507 370.826L222.633 364.561L179.268 339.628C171.709 335.27 165.584 323.611 165.584 313.565V65.5894C165.584 55.5362 171.709 50.9273 179.268 55.2683L268.547 106.598C276.106 110.955 282.215 122.607 282.215 132.661V132.661Z" fill="#3F3F3F"/>
<path fill-rule="evenodd" clip-rule="evenodd" d="M275.788 130.145V371.662C275.788 377.748 271.512 380.222 266.217 377.171L238.312 361.121L235.869 359.709L235.054 359.231L229.026 355.765L211.571 345.737L204.338 341.574L201.423 339.895L181.622 328.486C176.335 325.443 172.043 318.043 172.043 311.957V70.4566C172.043 64.3711 176.336 61.9124 181.622 64.9472L216.458 84.989V85.062C216.458 89.7927 219.806 95.5531 223.919 97.9229C228.032 100.292 231.38 98.3772 231.38 93.6386C231.38 93.6386 231.38 93.5576 231.38 93.5248L266.225 113.574C271.512 116.642 275.788 124.05 275.788 130.144L275.788 130.145Z" fill="white"/>
<path fill-rule="evenodd" clip-rule="evenodd" d="M261.167 186.928L187.005 144.296C186.16 143.692 185.469 142.898 184.987 141.978C184.505 141.06 184.244 140.042 184.228 139.005V87.6351C184.228 85.5908 185.474 84.6574 187.005 85.5416L261.167 128.189C262.011 128.794 262.703 129.588 263.185 130.506C263.668 131.425 263.928 132.443 263.945 133.479V184.866C263.945 186.871 262.666 187.812 261.167 186.928Z" fill="#EBEDF9"/>
<path fill-rule="evenodd" clip-rule="evenodd" d="M262.829 210.442L185.335 165.871C184.999 165.632 184.724 165.316 184.532 164.952C184.339 164.586 184.235 164.182 184.228 163.77V156.67C184.228 155.859 184.725 155.477 185.335 155.859L262.829 200.429C263.169 200.669 263.447 200.988 263.641 201.355C263.835 201.723 263.939 202.132 263.945 202.547V209.647C263.945 210.426 263.48 210.831 262.83 210.442H262.829Z" fill="#EBEDF9"/>
<path fill-rule="evenodd" clip-rule="evenodd" d="M251.059 220.366L185.335 182.57C184.999 182.327 184.723 182.01 184.531 181.641C184.338 181.274 184.235 180.866 184.227 180.452V173.344C184.227 172.533 184.724 172.159 185.335 172.533L251.059 210.336C251.4 210.576 251.678 210.894 251.872 211.262C252.066 211.63 252.17 212.039 252.176 212.455V219.555C252.176 220.341 251.678 220.723 251.059 220.366L251.059 220.366Z" fill="#EBEDF9"/>
<path fill-rule="evenodd" clip-rule="evenodd" d="M240.674 231.06L185.376 199.261C185.038 199.019 184.761 198.702 184.568 198.334C184.377 197.966 184.273 197.558 184.268 197.144V190.044C184.268 189.233 184.765 188.851 185.376 189.233L240.674 221.007C241.013 221.25 241.289 221.567 241.482 221.935C241.673 222.302 241.776 222.711 241.782 223.125V230.225C241.742 231.044 241.244 231.418 240.674 231.06Z" fill="#EBEDF9"/>
<path fill-rule="evenodd" clip-rule="evenodd" d="M261.535 326.863L184.041 282.293C183.701 282.051 183.423 281.734 183.229 281.366C183.035 280.999 182.931 280.59 182.925 280.175V273.075C182.925 272.263 183.422 271.882 184.04 272.263L261.534 316.835C261.873 317.076 262.151 317.393 262.345 317.761C262.539 318.129 262.643 318.536 262.649 318.951V326.051C262.666 326.862 262.153 327.22 261.534 326.862L261.535 326.863Z" fill="#EBEDF9"/>
<path fill-rule="evenodd" clip-rule="evenodd" d="M249.764 336.786L184.041 298.983C183.701 298.744 183.423 298.428 183.229 298.062C183.035 297.695 182.931 297.288 182.925 296.874V289.766C182.925 288.954 183.422 288.572 184.04 288.954L249.764 326.749C250.101 326.993 250.376 327.311 250.569 327.678C250.761 328.045 250.865 328.453 250.872 328.868V335.976C250.872 336.762 250.375 337.144 249.764 336.787L249.764 336.786Z" fill="#EBEDF9"/>
<path fill-rule="evenodd" clip-rule="evenodd" d="M239.33 347.482L184.041 315.682C183.701 315.441 183.423 315.124 183.229 314.756C183.035 314.388 182.931 313.979 182.925 313.564V306.464C182.925 305.653 183.422 305.271 184.04 305.653L239.33 337.412C239.671 337.652 239.949 337.969 240.143 338.337C240.337 338.706 240.441 339.113 240.447 339.53V346.629C240.447 347.465 239.95 347.838 239.33 347.482Z" fill="#EBEDF9"/>
<path fill-rule="evenodd" clip-rule="evenodd" d="M275.79 136.231V195.122L272.947 193.557C272.101 192.948 271.408 192.153 270.924 191.232C270.441 190.31 270.18 189.289 270.161 188.251V136.913C270.161 134.868 271.416 133.926 272.947 134.819L275.79 136.231V136.231Z" fill="#EBEDF9"/>
<path fill-rule="evenodd" clip-rule="evenodd" d="M190.347 262.421L184.785 259.224C184.442 258.981 184.161 258.659 183.966 258.287C183.77 257.914 183.666 257.502 183.661 257.082V230.524C183.661 229.713 184.165 229.331 184.776 229.713L190.34 232.958C190.677 233.2 190.952 233.516 191.145 233.882C191.338 234.249 191.441 234.654 191.448 235.067V261.658C191.455 262.396 190.99 262.761 190.347 262.42V262.421Z" fill="#EBEDF9"/>
<path fill-rule="evenodd" clip-rule="evenodd" d="M202.392 269.367L196.829 266.17C196.491 265.929 196.213 265.611 196.022 265.244C195.829 264.875 195.726 264.468 195.721 264.052V231.117C195.721 230.306 196.218 229.924 196.829 230.306L202.392 233.503C202.731 233.744 203.008 234.062 203.202 234.43C203.394 234.798 203.499 235.206 203.507 235.62V268.548C203.54 269.351 203.035 269.725 202.392 269.367Z" fill="#EBEDF9"/>
<path fill-rule="evenodd" clip-rule="evenodd" d="M214.504 276.321L208.908 273.116C208.571 272.875 208.295 272.559 208.103 272.193C207.91 271.826 207.807 271.42 207.8 271.007V247.67C207.8 246.858 208.297 246.477 208.908 246.858L214.471 250.055C214.811 250.295 215.089 250.613 215.283 250.981C215.476 251.35 215.581 251.757 215.587 252.173V275.501C215.62 276.296 215.122 276.669 214.504 276.321V276.321Z" fill="#EBEDF9"/>
<path fill-rule="evenodd" clip-rule="evenodd" d="M226.591 283.267L221.027 280.07C220.687 279.828 220.41 279.511 220.216 279.143C220.022 278.776 219.918 278.367 219.912 277.952V238.948C219.912 238.137 220.408 237.755 221.027 238.137L226.591 241.341C226.928 241.582 227.205 241.9 227.397 242.269C227.59 242.636 227.693 243.044 227.698 243.459V282.463C227.698 283.242 227.201 283.623 226.59 283.267H226.591Z" fill="#EBEDF9"/>
<path fill-rule="evenodd" clip-rule="evenodd" d="M238.67 290.212L233.106 287.015C232.767 286.775 232.49 286.457 232.296 286.089C232.102 285.721 231.998 285.313 231.991 284.898V251.97C231.991 251.159 232.496 250.778 233.106 251.159L238.67 254.356C239.007 254.599 239.284 254.915 239.476 255.284C239.668 255.651 239.771 256.059 239.778 256.473V289.377C239.778 290.195 239.281 290.569 238.67 290.212Z" fill="#EBEDF9"/>
<path fill-rule="evenodd" clip-rule="evenodd" d="M262.828 304.144L257.274 300.899C256.934 300.658 256.656 300.34 256.462 299.973C256.268 299.604 256.164 299.197 256.158 298.78V265.869C256.158 265.058 256.655 264.677 257.273 265.058L262.828 268.255C263.169 268.495 263.447 268.812 263.641 269.181C263.835 269.549 263.939 269.957 263.945 270.374V303.3C263.945 304.095 263.48 304.468 262.828 304.143V304.144Z" fill="#EBEDF9"/>
<path fill-rule="evenodd" clip-rule="evenodd" d="M250.75 297.165L245.186 293.969C244.85 293.726 244.573 293.408 244.382 293.041C244.189 292.674 244.086 292.266 244.078 291.851V246.761C244.078 245.95 244.575 245.576 245.186 245.95L250.75 249.147C251.089 249.387 251.366 249.706 251.561 250.073C251.755 250.441 251.858 250.849 251.865 251.264V296.354C251.865 297.141 251.369 297.515 250.75 297.165Z" fill="#EBEDF9"/>
<path fill-rule="evenodd" clip-rule="evenodd" d="M225.926 95.4649C227.033 94.8289 227.034 92.7678 225.929 90.8626C224.825 88.957 223.034 87.9285 221.927 88.5645C220.821 89.2005 220.819 91.2612 221.923 93.1668C223.027 95.0725 224.819 96.1009 225.926 95.4649Z" fill="#2B303F"/>
<path fill-rule="evenodd" clip-rule="evenodd" d="M223.92 93.3714C223.579 93.1452 223.296 92.8422 223.093 92.4867C222.891 92.1317 222.776 91.7346 222.754 91.3267C222.754 90.5717 223.292 90.2715 223.944 90.6453C224.288 90.8701 224.575 91.1721 224.782 91.5267C224.988 91.8821 225.109 92.2802 225.133 92.69C225.109 93.4445 224.571 93.7531 223.919 93.3714H223.92Z" fill="white" fill-opacity="0.101961"/>
<path fill-rule="evenodd" clip-rule="evenodd" d="M285.846 165.287C285.121 165.709 284.527 165.287 284.527 164.297V153.749C284.536 153.258 284.659 152.775 284.888 152.34C285.117 151.905 285.446 151.529 285.846 151.242C286.571 150.828 287.166 151.242 287.166 152.24V162.787C287.156 163.278 287.031 163.759 286.803 164.193C286.573 164.626 286.246 165.001 285.846 165.287Z" fill="#757B89"/>
<path fill-rule="evenodd" clip-rule="evenodd" d="M285.846 182.611C285.121 183.033 284.527 182.611 284.527 181.621V171.073C284.536 170.581 284.659 170.099 284.888 169.663C285.117 169.228 285.446 168.852 285.846 168.565C286.571 168.151 287.166 168.565 287.166 169.563V180.112C287.156 180.602 287.031 181.083 286.803 181.517C286.573 181.95 286.246 182.325 285.846 182.611Z" fill="#757B89"/>
<path fill-rule="evenodd" clip-rule="evenodd" d="M228.289 268.796L213.089 259.763L213.191 169.817L228.391 178.85L228.289 268.796Z" fill="#C9C9CB"/>
<path fill-rule="evenodd" clip-rule="evenodd" d="M216.303 180.493C198.766 191.358 184.757 216.009 184.757 236.366C184.757 256.725 198.766 265.269 216.303 255.97V180.493V180.493Z" fill="#DD990E"/>
<path fill-rule="evenodd" clip-rule="evenodd" d="M216.294 180.485L224.913 185.386L217.932 200.154L210.17 193.475L216.294 180.485Z" fill="#DD990E"/>
<path fill-rule="evenodd" clip-rule="evenodd" d="M204.443 263.176C204.263 263.095 193.04 256.685 193.04 256.685L199.043 251.914L204.443 263.176Z" fill="#DD990E"/>
<path fill-rule="evenodd" clip-rule="evenodd" d="M224.913 185.386C207.385 196.259 193.375 220.909 193.375 241.268C193.375 261.626 207.385 270.163 224.913 260.872V185.386Z" fill="#F9CB07"/>
<path fill-rule="evenodd" clip-rule="evenodd" d="M224.913 198.661C212.532 206.555 202.708 224.001 202.708 238.42C202.708 252.839 212.532 258.989 224.913 252.644V198.661Z" fill="#E8A30A"/>
<path fill-rule="evenodd" clip-rule="evenodd" d="M219.758 226.955C220.365 227.207 221.027 227.302 221.68 227.229C222.605 227.147 223.52 226.984 224.417 226.743L224.914 226.63V221.574C224.377 221.692 223.822 221.692 223.285 221.574C222.804 221.444 222.56 220.974 222.56 220.162C222.592 219.35 222.819 218.557 223.224 217.851C223.627 217.145 224.195 216.546 224.882 216.106V211.821C224.007 212.435 223.19 213.125 222.438 213.882C221.585 214.744 220.833 215.699 220.198 216.729C219.576 217.749 219.079 218.839 218.715 219.976C218.36 221.105 218.178 222.281 218.178 223.465C218.144 224.246 218.276 225.026 218.57 225.752C218.801 226.287 219.225 226.715 219.758 226.954L219.758 226.955Z" fill="#F9CA06"/>
<path fill-rule="evenodd" clip-rule="evenodd" d="M224.914 232.805C224.418 233 223.905 233.154 223.384 233.267C222.763 233.395 222.135 233.479 221.503 233.518C221.017 233.548 220.532 233.524 220.052 233.446C219.756 233.402 219.468 233.314 219.197 233.186L217.315 238.493C218.54 238.758 219.806 238.774 221.038 238.542C222.381 238.299 223.686 237.876 224.914 237.284V232.805Z" fill="#F9CA06"/>
<path fill-rule="evenodd" clip-rule="evenodd" d="M407.999 193.847L407.902 227.604C407.899 228.235 407.676 228.674 407.316 228.889L405.176 230.123C405.536 229.917 405.759 229.477 405.759 228.847L405.859 195.09C405.859 193.821 404.969 192.285 403.86 191.646L356.223 164.009C355.667 163.69 355.164 163.665 354.802 163.873L356.943 162.637C357.307 162.421 357.81 162.456 358.367 162.775L406.002 190.411C407.109 191.049 408.002 192.585 407.999 193.846V193.847Z" fill="#4F5E74"/>
<path fill-rule="evenodd" clip-rule="evenodd" d="M403.863 191.646C404.968 192.285 405.862 193.821 405.858 195.09L405.762 228.847C405.758 230.106 404.86 230.616 403.754 229.986L356.119 202.352C355.012 201.712 354.119 200.174 354.123 198.914L354.218 165.149C354.221 163.887 355.122 163.379 356.226 164.009L403.862 191.644L403.863 191.645V191.646Z" fill="#3A5FA3"/>
<path fill-rule="evenodd" clip-rule="evenodd" d="M365.723 182.002C366.767 182.597 367.706 183.349 368.543 184.237C369.391 185.153 370.085 186.146 370.663 187.268L368.867 188.132C368.057 186.585 367.053 185.464 365.855 184.781C365.11 184.35 364.438 184.151 363.857 184.204C363.277 184.238 362.81 184.488 362.487 184.981C362.151 185.456 361.994 186.111 361.991 186.967C361.99 187.822 362.141 188.676 362.474 189.53C362.794 190.376 363.257 191.171 363.835 191.879C364.416 192.578 365.085 193.148 365.831 193.578C367.03 194.27 368.036 194.304 368.851 193.674L370.636 196.592C370.054 197.05 369.343 197.266 368.505 197.196C367.654 197.136 366.699 196.79 365.669 196.204C364.432 195.487 363.325 194.546 362.347 193.381C361.357 192.189 360.573 190.902 360.011 189.504C359.446 188.087 359.168 186.716 359.17 185.35C359.174 183.997 359.46 182.934 360.032 182.184C360.6 181.422 361.39 181.034 362.383 180.999C363.364 180.939 364.485 181.293 365.724 182.001L365.723 182.002V182.002Z" fill="#FEFEFE"/>
<path fill-rule="evenodd" clip-rule="evenodd" d="M375.026 186.749L374.985 201.315L372.305 199.77L372.346 185.213L375.026 186.749Z" fill="#FEFEFE"/>
<path fill-rule="evenodd" clip-rule="evenodd" d="M378.861 191.489C378.37 191.213 377.958 190.8 377.649 190.289C377.354 189.797 377.202 189.297 377.202 188.832C377.204 188.338 377.359 188.019 377.657 187.864C377.967 187.717 378.379 187.795 378.87 188.07C379.36 188.357 379.757 188.736 380.066 189.237C380.375 189.719 380.527 190.194 380.526 190.678C380.526 191.179 380.37 191.516 380.058 191.663C379.748 191.827 379.351 191.775 378.859 191.489H378.861Z" fill="#FEFEFE"/>
<path fill-rule="evenodd" clip-rule="evenodd" d="M377.489 202.746L377.517 192.18L380.198 193.716L380.167 204.284L377.489 202.746Z" fill="#FEFEFE"/>
<path fill-rule="evenodd" clip-rule="evenodd" d="M387.155 197.56C388.121 198.119 388.971 198.837 389.704 199.717C390.424 200.607 390.951 201.572 391.283 202.618L389.206 202.704C388.719 201.452 388.038 200.572 387.122 200.054C386.427 199.649 385.846 199.58 385.394 199.855C384.928 200.106 384.694 200.694 384.692 201.59C384.69 202.496 384.919 203.343 385.383 204.138C385.832 204.915 386.41 205.51 387.105 205.906C388.033 206.442 388.717 206.348 389.197 205.647L391.267 208.135C390.93 208.783 390.401 209.145 389.678 209.196C388.942 209.25 388.09 208.998 387.125 208.437C386.133 207.867 385.256 207.134 384.472 206.209C383.687 205.304 383.071 204.302 382.636 203.222C382.202 202.152 381.985 201.081 381.985 200.037C381.989 198.992 382.211 198.191 382.652 197.621C383.092 197.032 383.711 196.748 384.497 196.731C385.286 196.722 386.163 196.991 387.154 197.56L387.155 197.56Z" fill="#FEFEFE"/>
<path fill-rule="evenodd" clip-rule="evenodd" d="M395.461 198.484L395.436 206.728L399.363 204.725L402.559 206.556L398.694 208.817L402.865 217.321L399.618 215.457L396.718 209.629L395.426 210.346L395.418 213.038L392.739 211.502L392.78 196.946L395.461 198.484Z" fill="#FEFEFE"/>
<path fill-rule="evenodd" clip-rule="evenodd" d="M328.585 336.888L333.628 333.97L332.669 334.711L327.627 337.629L328.585 336.888Z" fill="#FFD56D"/>
<path fill-rule="evenodd" clip-rule="evenodd" d="M307.964 301.498L313.007 298.578L314.224 298.31L309.183 301.23L307.964 301.498Z" fill="#FBDF8B"/>
<path fill-rule="evenodd" clip-rule="evenodd" d="M330.753 336.255L335.794 333.337L335.072 334.387L330.02 337.306L330.753 336.255Z" fill="#FFD56D"/>
<path fill-rule="evenodd" clip-rule="evenodd" d="M309.667 299.908L314.708 296.989L316.057 297.074L311.014 299.992L309.667 299.908Z" fill="#FFD56D"/>
<path fill-rule="evenodd" clip-rule="evenodd" d="M332.596 335.009L337.64 332.091L337.153 333.422L332.111 336.341L332.596 335.009Z" fill="#FFD56D"/>
<path fill-rule="evenodd" clip-rule="evenodd" d="M311.746 298.933L316.787 296.012L318.231 296.442L313.19 299.361L311.746 298.933Z" fill="#FFD56D"/>
<path fill-rule="evenodd" clip-rule="evenodd" d="M334.027 333.186L339.07 330.267L338.854 331.823L333.814 334.742L334.027 333.186Z" fill="#FBDF8B"/>
<path fill-rule="evenodd" clip-rule="evenodd" d="M314.135 298.612L319.179 295.693L320.665 296.454L315.611 299.374L314.135 298.612Z" fill="#FFD56D"/>
<path fill-rule="evenodd" clip-rule="evenodd" d="M335.072 332.584L340.117 329.666L339.071 330.267L334.028 333.185L335.072 332.584Z" fill="#383A3F"/>
<path fill-rule="evenodd" clip-rule="evenodd" d="M335.019 330.857L340.063 327.938L340.116 329.666L335.073 332.584L335.019 330.857Z" fill="#FBDF8B"/>
<path fill-rule="evenodd" clip-rule="evenodd" d="M315.612 299.372L320.666 296.454L321.808 296.045L316.767 298.964L315.612 299.372Z" fill="#FBDF8B"/>
<path fill-rule="evenodd" clip-rule="evenodd" d="M316.769 298.964L321.81 296.045L323.276 297.107L318.231 300.025L316.769 298.964Z" fill="#FFD56D"/>
<path fill-rule="evenodd" clip-rule="evenodd" d="M335.85 329.932L340.892 327.014L340.063 327.938L335.019 330.857L335.85 329.932Z" fill="#FFD56D"/>
<path fill-rule="evenodd" clip-rule="evenodd" d="M335.524 328.087L340.568 325.169L340.889 327.014L335.848 329.932L335.524 328.087Z" fill="#FBDF8B"/>
<path fill-rule="evenodd" clip-rule="evenodd" d="M318.232 300.026L323.275 297.108L324.568 297.045L319.525 299.963L318.232 300.026Z" fill="#FBDF8B"/>
<path fill-rule="evenodd" clip-rule="evenodd" d="M319.527 299.963L324.57 297.045L325.98 298.373L320.939 301.293L319.527 299.963Z" fill="#FFD56D"/>
<path fill-rule="evenodd" clip-rule="evenodd" d="M336.118 326.876L341.158 323.958L340.568 325.169L335.524 328.088L336.118 326.876Z" fill="#FFD56D"/>
<path fill-rule="evenodd" clip-rule="evenodd" d="M335.537 324.987L340.578 322.069L341.16 323.958L336.119 326.876L335.537 324.987Z" fill="#FBDF8B"/>
<path fill-rule="evenodd" clip-rule="evenodd" d="M320.934 301.292L325.976 298.373L327.388 298.652L322.345 301.571L320.934 301.292Z" fill="#FBDF8B"/>
<path fill-rule="evenodd" clip-rule="evenodd" d="M322.346 301.571L327.389 298.653L328.683 300.22L323.628 303.138L322.346 301.571Z" fill="#FFD56D"/>
<path fill-rule="evenodd" clip-rule="evenodd" d="M335.872 323.527L340.913 320.609L340.578 322.068L335.537 324.986L335.872 323.527Z" fill="#FFD56D"/>
<path fill-rule="evenodd" clip-rule="evenodd" d="M335.043 321.648L340.084 318.73L340.915 320.609L335.873 323.527L335.043 321.648Z" fill="#FBDF8B"/>
<path fill-rule="evenodd" clip-rule="evenodd" d="M323.627 303.138L328.682 300.219L330.147 300.832L325.103 303.75L323.627 303.138Z" fill="#FBDF8B"/>
<path fill-rule="evenodd" clip-rule="evenodd" d="M325.103 303.75L330.148 300.832L331.289 302.559L326.247 305.479L325.103 303.75Z" fill="#FFD56D"/>
<path fill-rule="evenodd" clip-rule="evenodd" d="M335.106 319.997L340.15 317.078L340.084 318.73L335.043 321.648L335.106 319.997Z" fill="#FFD56D"/>
<path fill-rule="evenodd" clip-rule="evenodd" d="M334.069 318.183L339.111 315.264L340.146 317.078L335.102 319.996L334.069 318.183Z" fill="#FBDF8B"/>
<path fill-rule="evenodd" clip-rule="evenodd" d="M326.247 305.478L331.289 302.559L332.754 303.505L327.713 306.421L326.247 305.478Z" fill="#FBDF8B"/>
<path fill-rule="evenodd" clip-rule="evenodd" d="M327.712 306.421L332.753 303.504L333.711 305.349L328.671 308.269L327.712 306.421Z" fill="#FFD56D"/>
<path fill-rule="evenodd" clip-rule="evenodd" d="M333.866 316.391L338.908 313.472L339.113 315.265L334.072 318.183L333.866 316.391Z" fill="#FFD56D"/>
<path fill-rule="evenodd" clip-rule="evenodd" d="M332.646 314.73L337.689 311.809L338.906 313.472L333.864 316.39L332.646 314.73Z" fill="#FBDF8B"/>
<path fill-rule="evenodd" clip-rule="evenodd" d="M328.674 308.269L333.716 305.35L335.15 306.572L330.106 309.491L328.674 308.269Z" fill="#FBDF8B"/>
<path fill-rule="evenodd" clip-rule="evenodd" d="M330.105 309.492L335.149 306.573L335.872 308.462L330.828 311.382L330.105 309.492Z" fill="#FFD56D"/>
<path fill-rule="evenodd" clip-rule="evenodd" d="M332.173 312.852L337.215 309.932L337.691 311.809L332.647 314.729L332.173 312.852Z" fill="#FFD56D"/>
<path fill-rule="evenodd" clip-rule="evenodd" d="M322.349 301.572L323.632 303.138L325.107 303.751L326.251 305.478L327.716 306.421L328.675 308.27L330.107 309.492L330.83 311.382L332.177 312.852L332.65 314.729L333.868 316.391L334.073 318.183L335.106 319.997L335.043 321.649L335.873 323.528L335.539 324.987L336.121 326.876L335.527 328.089L335.851 329.933L335.021 330.858L335.073 332.584L334.029 333.186L333.816 334.742L332.597 335.01L332.112 336.342L330.754 336.257L330.021 337.307L328.589 336.888L327.631 337.629L326.154 336.867L325.011 337.285L323.545 336.212L322.243 336.287L320.841 334.946L319.429 334.667L318.136 333.111L316.671 332.49L315.529 330.761L314.052 329.818L313.105 327.982L311.671 326.759L310.938 324.86L309.604 323.389L309.117 321.511L307.911 319.847L307.706 318.056L306.674 316.253L306.736 314.601L305.907 312.71L306.241 311.252L305.659 309.364L306.252 308.151L305.928 306.316L306.76 305.381L306.704 303.665L307.751 303.053L307.965 301.498L309.183 301.23L309.669 299.908L311.014 299.993L311.748 298.934L313.191 299.362L314.139 298.611L315.616 299.372L316.77 298.964L318.233 300.027L319.526 299.963L320.938 301.293L322.349 301.572Z" fill="#FFCA59"/>
<path fill-rule="evenodd" clip-rule="evenodd" d="M330.829 311.38L335.873 308.462L337.217 309.932L332.176 312.852L330.829 311.38Z" fill="#FBDF8B"/>
<path fill-rule="evenodd" clip-rule="evenodd" d="M312.986 303.825C311.961 305.232 311.37 307.205 311.359 309.674C311.349 317.056 316.553 326.061 323.018 329.774C326.077 331.523 328.868 331.78 330.948 330.783C328.912 333.572 325.151 334.066 320.852 331.599C314.398 327.884 309.182 318.882 309.194 311.501C309.216 307.614 310.67 304.943 312.985 303.826L312.986 303.825Z" fill="#FBDF8B"/>
<path fill-rule="evenodd" clip-rule="evenodd" d="M323.016 329.773C316.552 326.06 311.348 317.056 311.358 309.673C311.368 307.204 311.959 305.231 312.985 303.824C315.076 302.828 317.865 303.074 320.926 304.834C327.379 308.547 332.595 317.55 332.574 324.934C332.563 327.403 331.981 329.375 330.947 330.783C328.867 331.779 326.075 331.521 323.016 329.773Z" fill="#FCB945"/>
<path fill-rule="evenodd" clip-rule="evenodd" d="M321.678 324.804L322.714 324.205V326.286L321.678 326.876V324.804Z" fill="#FBDF8B"/>
<path fill-rule="evenodd" clip-rule="evenodd" d="M316.931 318.366L317.965 317.767C318.374 318.355 318.848 318.914 319.408 319.472C319.959 320.017 320.519 320.49 321.112 320.898L320.078 321.5C319.485 321.092 318.915 320.62 318.374 320.073C317.814 319.513 317.341 318.956 316.932 318.366H316.93L316.931 318.366Z" fill="#FBDF8B"/>
<path fill-rule="evenodd" clip-rule="evenodd" d="M321.69 322.347L322.727 321.756C323.114 321.876 323.414 321.886 323.61 321.779L322.573 322.37C322.379 322.487 322.078 322.476 321.69 322.347Z" fill="#FBDF8B"/>
<path fill-rule="evenodd" clip-rule="evenodd" d="M321.702 319.793L322.738 319.194L322.726 321.756L321.69 322.347L321.702 319.793Z" fill="#FBDF8B"/>
<path fill-rule="evenodd" clip-rule="evenodd" d="M319.201 313.022L320.235 312.421L320.213 312.432C320.019 312.561 319.922 312.796 319.922 313.108C319.922 313.419 320.03 313.731 320.235 314.051C320.429 314.364 320.731 314.708 321.118 315.061L320.082 315.662C319.694 315.309 319.396 314.965 319.201 314.653C318.985 314.33 318.888 314.021 318.888 313.709C318.888 313.398 318.985 313.161 319.18 313.034L319.201 313.022V313.022Z" fill="#FBDF8B"/>
<path fill-rule="evenodd" clip-rule="evenodd" d="M325.581 324.441L324.545 325.042C325.159 324.687 325.47 324.01 325.47 323.023C325.482 322.209 325.298 321.446 324.944 320.738L325.978 320.136C326.335 320.846 326.517 321.608 326.517 322.422C326.506 323.409 326.194 324.088 325.581 324.441Z" fill="#FBDF8B"/>
<path fill-rule="evenodd" clip-rule="evenodd" d="M321.702 317.057L322.737 316.467C323.502 317.099 324.137 317.689 324.666 318.247C325.193 318.796 325.624 319.429 325.979 320.137L324.946 320.739C324.591 320.03 324.148 319.398 323.63 318.849C323.103 318.292 322.466 317.702 321.702 317.057Z" fill="#FBDF8B"/>
<path fill-rule="evenodd" clip-rule="evenodd" d="M321.713 313.902L322.746 313.301L322.737 316.468L321.702 317.056L321.713 313.902Z" fill="#FBDF8B"/>
<path fill-rule="evenodd" clip-rule="evenodd" d="M317.217 310.307L318.262 309.706L318.306 309.684C318.951 309.32 319.899 309.416 321.14 309.963L320.095 310.564C318.865 310.006 317.917 309.921 317.259 310.285L317.217 310.307Z" fill="#FBDF8B"/>
<path fill-rule="evenodd" clip-rule="evenodd" d="M321.726 309.438L322.76 308.837V310.855L321.726 311.455V309.438Z" fill="#FBDF8B"/>
<path fill-rule="evenodd" clip-rule="evenodd" d="M320.105 308.504L321.14 307.902L322.755 308.837L321.722 309.438L320.105 308.504Z" fill="#FBDF8B"/>
<path fill-rule="evenodd" clip-rule="evenodd" d="M325.008 314.481L326.044 313.88L325.224 315.693L324.19 316.294L325.008 314.481Z" fill="#FBDF8B"/>
<path fill-rule="evenodd" clip-rule="evenodd" d="M321.727 311.455L322.76 310.854C324.098 311.745 325.184 312.754 326.047 313.88L325.012 314.482C324.15 313.353 323.05 312.346 321.726 311.455H321.727H321.727Z" fill="#FBDF8B"/>
<path fill-rule="evenodd" clip-rule="evenodd" d="M322.572 322.37C322.756 322.262 322.863 322.058 322.863 321.738C322.863 321.436 322.765 321.125 322.56 320.813C322.366 320.502 322.075 320.16 321.699 319.793L321.688 322.348C322.076 322.477 322.377 322.487 322.571 322.37H322.572ZM320.082 315.663L320.095 313.034C319.675 312.904 319.384 312.904 319.179 313.034C318.985 313.161 318.889 313.398 318.889 313.709C318.889 314.021 318.986 314.331 319.201 314.654C319.395 314.965 319.695 315.309 320.083 315.662H320.082V315.663ZM324.942 320.739C325.299 321.446 325.481 322.209 325.469 323.025C325.469 324.044 325.136 324.721 324.489 325.073C323.843 325.418 322.907 325.332 321.677 324.806V326.877L320.052 325.953L320.062 323.926C319.254 323.41 318.5 322.821 317.766 322.123C317.056 321.437 316.472 320.77 316.021 320.116L316.927 318.367C317.337 318.957 317.81 319.514 318.37 320.074C318.91 320.62 319.481 321.092 320.074 321.501V318.389C319.309 317.744 318.661 317.134 318.131 316.562C317.605 316.005 317.162 315.373 316.806 314.665C316.45 313.955 316.27 313.183 316.278 312.358C316.278 311.338 316.601 310.64 317.257 310.286C317.917 309.923 318.865 310.008 320.094 310.565L320.103 308.504L321.72 309.439V311.455C323.044 312.346 324.143 313.354 325.005 314.482L324.187 316.294C323.378 315.298 322.56 314.504 321.709 313.903L321.698 317.056C322.462 317.702 323.099 318.293 323.626 318.85C324.144 319.398 324.587 320.03 324.941 320.739H324.942Z" fill="#FFCA59"/>
<path fill-rule="evenodd" clip-rule="evenodd" d="M319.666 301.883L318.696 303.257L320.084 302.291L320.668 305.607L321.25 302.291L322.63 303.257L321.66 301.872L324.987 301.292L321.66 300.702L322.63 299.329L321.25 300.297L320.668 296.978L320.075 300.306L318.696 299.329L319.655 300.702L316.336 301.292L319.666 301.883Z" fill="#FEFEFE"/>
<path fill-rule="evenodd" clip-rule="evenodd" d="M353.905 276.203L358.948 273.283L357.99 274.025L352.946 276.945L353.905 276.203Z" fill="#FFD56D"/>
<path fill-rule="evenodd" clip-rule="evenodd" d="M333.284 240.823L338.326 237.905L339.544 237.634L334.501 240.555L333.284 240.823Z" fill="#FBDF8B"/>
<path fill-rule="evenodd" clip-rule="evenodd" d="M356.073 275.571L361.117 272.653L360.384 273.714L355.339 276.634L356.073 275.571Z" fill="#FFD56D"/>
<path fill-rule="evenodd" clip-rule="evenodd" d="M334.983 239.224L340.027 236.304L341.373 236.389L336.332 239.309L334.983 239.224Z" fill="#FFD56D"/>
<path fill-rule="evenodd" clip-rule="evenodd" d="M357.916 274.335L362.959 271.417L362.475 272.738L357.43 275.657L357.916 274.335Z" fill="#FFD56D"/>
<path fill-rule="evenodd" clip-rule="evenodd" d="M337.062 238.257L342.107 235.339L343.549 235.769L338.508 238.687L337.062 238.257Z" fill="#FFD56D"/>
<path fill-rule="evenodd" clip-rule="evenodd" d="M359.346 272.511L364.388 269.593L364.171 271.149L359.13 274.067L359.346 272.511Z" fill="#FBDF8B"/>
<path fill-rule="evenodd" clip-rule="evenodd" d="M339.459 237.938L344.5 235.019L345.977 235.779L340.935 238.698L339.459 237.938Z" fill="#FFD56D"/>
<path fill-rule="evenodd" clip-rule="evenodd" d="M360.393 271.909L365.436 268.991L364.39 269.593L359.348 272.512L360.393 271.909Z" fill="#383A3F"/>
<path fill-rule="evenodd" clip-rule="evenodd" d="M360.342 270.184L365.384 267.265L365.439 268.992L360.396 271.911L360.342 270.184Z" fill="#FBDF8B"/>
<path fill-rule="evenodd" clip-rule="evenodd" d="M340.936 238.698L345.978 235.779L347.13 235.36L342.087 238.279L340.936 238.698Z" fill="#FBDF8B"/>
<path fill-rule="evenodd" clip-rule="evenodd" d="M342.084 238.279L347.126 235.36L348.594 236.433L343.55 239.353L342.084 238.279Z" fill="#FFD56D"/>
<path fill-rule="evenodd" clip-rule="evenodd" d="M361.172 269.26L366.213 266.332L365.384 267.265L360.342 270.184L361.172 269.26Z" fill="#FFD56D"/>
<path fill-rule="evenodd" clip-rule="evenodd" d="M360.844 267.414L365.888 264.494L366.209 266.332L361.168 269.259L360.844 267.414Z" fill="#FBDF8B"/>
<path fill-rule="evenodd" clip-rule="evenodd" d="M343.556 239.353L348.599 236.433L349.891 236.359L344.849 239.278L343.556 239.353Z" fill="#FBDF8B"/>
<path fill-rule="evenodd" clip-rule="evenodd" d="M344.846 239.278L349.888 236.359L351.299 237.7L346.256 240.62L344.846 239.278Z" fill="#FFD56D"/>
<path fill-rule="evenodd" clip-rule="evenodd" d="M361.436 266.203L366.481 263.285L365.888 264.495L360.844 267.414L361.436 266.203Z" fill="#FFD56D"/>
<path fill-rule="evenodd" clip-rule="evenodd" d="M360.844 264.313L365.899 261.394L366.481 263.283L361.436 266.203L360.844 264.313Z" fill="#FBDF8B"/>
<path fill-rule="evenodd" clip-rule="evenodd" d="M346.257 240.618L351.3 237.7L352.699 237.979L347.658 240.897L346.257 240.618Z" fill="#FBDF8B"/>
<path fill-rule="evenodd" clip-rule="evenodd" d="M347.656 240.896L352.698 237.978L353.994 239.534L348.951 242.454L347.656 240.896Z" fill="#FFD56D"/>
<path fill-rule="evenodd" clip-rule="evenodd" d="M361.19 262.854L366.234 259.934L365.899 261.394L360.844 264.313L361.19 262.854Z" fill="#FFD56D"/>
<path fill-rule="evenodd" clip-rule="evenodd" d="M360.362 260.964L365.407 258.045L366.237 259.934L361.193 262.854L360.362 260.964Z" fill="#FBDF8B"/>
<path fill-rule="evenodd" clip-rule="evenodd" d="M348.951 242.454L353.994 239.534L355.458 240.157L350.416 243.077L348.951 242.454Z" fill="#FBDF8B"/>
<path fill-rule="evenodd" clip-rule="evenodd" d="M350.418 243.077L355.459 240.158L356.614 241.885L351.571 244.804L350.418 243.077Z" fill="#FFD56D"/>
<path fill-rule="evenodd" clip-rule="evenodd" d="M360.429 259.313L365.47 256.395L365.407 258.045L360.362 260.964L360.429 259.313Z" fill="#FFD56D"/>
<path fill-rule="evenodd" clip-rule="evenodd" d="M359.389 257.51L364.433 254.59L365.466 256.395L360.425 259.313L359.389 257.51Z" fill="#FBDF8B"/>
<path fill-rule="evenodd" clip-rule="evenodd" d="M351.571 244.804L356.614 241.885L358.08 242.82L353.036 245.738L351.571 244.804Z" fill="#FBDF8B"/>
<path fill-rule="evenodd" clip-rule="evenodd" d="M353.034 245.738L358.078 242.82L359.036 244.665L353.994 247.583L353.034 245.738Z" fill="#FFD56D"/>
<path fill-rule="evenodd" clip-rule="evenodd" d="M359.186 255.718L364.229 252.798L364.434 254.59L359.389 257.51L359.186 255.718Z" fill="#FFD56D"/>
<path fill-rule="evenodd" clip-rule="evenodd" d="M357.969 254.043L363.013 251.125L364.229 252.798L359.186 255.718L357.969 254.043Z" fill="#FBDF8B"/>
<path fill-rule="evenodd" clip-rule="evenodd" d="M353.993 247.584L359.035 244.664L360.467 245.899L355.426 248.817L353.993 247.584Z" fill="#FBDF8B"/>
<path fill-rule="evenodd" clip-rule="evenodd" d="M355.429 248.818L360.471 245.898L361.193 247.789L356.15 250.707L355.429 248.818Z" fill="#FFD56D"/>
<path fill-rule="evenodd" clip-rule="evenodd" d="M357.496 252.177L362.537 249.259L363.012 251.125L357.969 254.043L357.496 252.177Z" fill="#FFD56D"/>
<path fill-rule="evenodd" clip-rule="evenodd" d="M347.66 240.897L348.952 242.453L350.418 243.077L351.571 244.804L353.036 245.738L353.996 247.583L355.429 248.817L356.149 250.706L357.498 252.176L357.971 254.043L359.188 255.716L359.393 257.51L360.428 259.314L360.362 260.964L361.193 262.853L360.847 264.313L361.439 266.202L360.847 267.413L361.171 269.259L360.342 270.184L360.395 271.909L359.351 272.512L359.135 274.067L357.917 274.335L357.431 275.657L356.074 275.571L355.34 276.633L353.908 276.203L352.95 276.944L351.473 276.191L350.332 276.611L348.867 275.538L347.562 275.604L346.161 274.272L344.75 273.993L343.457 272.426L341.992 271.813L340.851 270.075L339.374 269.143L338.425 267.295L336.992 266.073L336.258 264.185L334.912 262.715L334.439 260.836L333.233 259.174L333.028 257.369L331.982 255.567L332.047 253.915L331.228 252.036L331.561 250.577L330.979 248.687L331.572 247.476L331.25 245.63L332.079 244.706L332.025 242.979L333.07 242.368L333.286 240.822L334.503 240.555L334.987 239.223L336.336 239.308L337.068 238.257L338.513 238.687L339.46 237.936L340.936 238.698L342.089 238.279L343.554 239.353L344.847 239.277L346.258 240.618L347.66 240.897Z" fill="#FFCA59"/>
<path fill-rule="evenodd" clip-rule="evenodd" d="M356.149 250.706L361.193 247.787L362.54 249.258L357.498 252.176L356.149 250.706Z" fill="#FBDF8B"/>
<path fill-rule="evenodd" clip-rule="evenodd" d="M338.307 243.15C337.283 244.546 336.69 246.53 336.679 248.988C336.668 256.381 341.872 265.375 348.338 269.088C351.399 270.847 354.187 271.106 356.268 270.096C354.232 272.886 350.471 273.38 346.172 270.914C339.706 267.2 334.502 258.208 334.513 250.813C334.524 246.929 335.989 244.267 338.307 243.15H338.307Z" fill="#FBDF8B"/>
<path fill-rule="evenodd" clip-rule="evenodd" d="M348.336 269.088C341.87 265.375 336.666 256.382 336.677 248.989C336.688 246.531 337.281 244.547 338.305 243.151C340.394 242.142 343.186 242.401 346.247 244.161C352.699 247.874 357.914 256.867 357.892 264.261C357.883 266.715 357.301 268.701 356.266 270.097C354.186 271.107 351.397 270.848 348.336 269.088Z" fill="#FCB945"/>
<path fill-rule="evenodd" clip-rule="evenodd" d="M347.001 264.121L348.034 263.52V265.601L347.001 266.203V264.121Z" fill="#FBDF8B"/>
<path fill-rule="evenodd" clip-rule="evenodd" d="M342.25 257.68L343.285 257.079C343.694 257.67 344.169 258.24 344.728 258.797C345.278 259.333 345.839 259.816 346.431 260.213L345.385 260.813C344.803 260.417 344.232 259.935 343.681 259.387C343.133 258.839 342.659 258.27 342.25 257.68V257.68Z" fill="#FBDF8B"/>
<path fill-rule="evenodd" clip-rule="evenodd" d="M347.011 261.672L348.044 261.073C348.433 261.189 348.734 261.201 348.927 261.094L347.882 261.695C347.689 261.802 347.397 261.791 347.01 261.673L347.011 261.671V261.672Z" fill="#FBDF8B"/>
<path fill-rule="evenodd" clip-rule="evenodd" d="M347.01 259.109L348.053 258.508L348.044 261.073L347.01 261.672V259.109Z" fill="#FBDF8B"/>
<path fill-rule="evenodd" clip-rule="evenodd" d="M344.523 252.338L345.559 251.737L345.537 251.759C345.343 251.888 345.246 252.112 345.246 252.434C345.246 252.746 345.343 253.057 345.559 253.37C345.753 253.69 346.055 254.023 346.44 254.387L345.407 254.99C345.019 254.622 344.718 254.292 344.513 253.968C344.307 253.659 344.211 253.348 344.211 253.036C344.211 252.713 344.307 252.487 344.501 252.359L344.523 252.337V252.338Z" fill="#FBDF8B"/>
<path fill-rule="evenodd" clip-rule="evenodd" d="M350.902 263.755L349.869 264.357C350.481 264.001 350.794 263.336 350.794 262.35C350.806 261.523 350.623 260.762 350.265 260.064L351.301 259.463C351.656 260.16 351.839 260.933 351.828 261.747C351.828 262.735 351.517 263.4 350.902 263.755Z" fill="#FBDF8B"/>
<path fill-rule="evenodd" clip-rule="evenodd" d="M347.018 256.382L348.055 255.783C348.818 256.415 349.456 257.017 349.983 257.563C350.511 258.122 350.943 258.743 351.298 259.463L350.262 260.065C349.908 259.345 349.467 258.722 348.95 258.165C348.421 257.607 347.787 257.017 347.02 256.382H347.019H347.018Z" fill="#FBDF8B"/>
<path fill-rule="evenodd" clip-rule="evenodd" d="M347.032 253.228L348.065 252.626L348.053 255.783L347.018 256.382L347.032 253.228Z" fill="#FBDF8B"/>
<path fill-rule="evenodd" clip-rule="evenodd" d="M342.541 249.623L343.575 249.02L343.627 248.998C344.275 248.645 345.223 248.731 346.461 249.277L345.416 249.879C344.189 249.333 343.24 249.236 342.582 249.601L342.541 249.623Z" fill="#FBDF8B"/>
<path fill-rule="evenodd" clip-rule="evenodd" d="M347.042 248.753L348.078 248.151V250.169L347.042 250.771V248.753Z" fill="#FBDF8B"/>
<path fill-rule="evenodd" clip-rule="evenodd" d="M345.428 247.818L346.462 247.219L348.079 248.151L347.043 248.753L345.428 247.818Z" fill="#FBDF8B"/>
<path fill-rule="evenodd" clip-rule="evenodd" d="M350.331 253.808L351.364 253.207L350.547 255.019L349.512 255.621L350.331 253.808Z" fill="#FBDF8B"/>
<path fill-rule="evenodd" clip-rule="evenodd" d="M347.042 250.771L348.078 250.169C349.414 251.06 350.503 252.081 351.363 253.207L350.33 253.808C349.469 252.671 348.369 251.662 347.042 250.771H347.042Z" fill="#FBDF8B"/>
<path fill-rule="evenodd" clip-rule="evenodd" d="M347.884 261.695C348.078 261.576 348.186 261.371 348.186 261.06C348.186 260.75 348.086 260.439 347.884 260.128C347.69 259.816 347.399 259.484 347.012 259.109V261.672C347.4 261.791 347.69 261.802 347.884 261.695V261.695ZM345.404 254.988L345.416 252.348C344.995 252.219 344.694 252.23 344.5 252.359C344.305 252.486 344.21 252.712 344.21 253.035C344.21 253.346 344.306 253.657 344.511 253.968C344.717 254.291 345.018 254.622 345.406 254.988H345.404ZM350.263 260.064C350.62 260.761 350.802 261.523 350.792 262.35C350.792 263.359 350.46 264.046 349.812 264.388C349.166 264.743 348.228 264.658 347 264.12V266.202L345.372 265.268L345.383 263.241C344.577 262.736 343.82 262.137 343.089 261.449C342.366 260.763 341.784 260.097 341.344 259.441L342.247 257.681C342.657 258.271 343.13 258.84 343.679 259.388C344.23 259.934 344.801 260.417 345.383 260.815L345.394 257.714C344.629 257.06 343.984 256.447 343.455 255.887C342.926 255.33 342.486 254.687 342.13 253.99C341.773 253.28 341.59 252.509 341.602 251.684C341.602 250.653 341.926 249.957 342.582 249.601C343.238 249.236 344.188 249.333 345.416 249.88L345.426 247.82L347.041 248.754V250.77C348.368 251.661 349.467 252.671 350.329 253.808L349.509 255.62C348.7 254.622 347.873 253.819 347.033 253.228L347.02 256.382C347.787 257.016 348.421 257.606 348.95 258.164C349.468 258.721 349.909 259.345 350.263 260.066L350.264 260.063L350.263 260.064Z" fill="#FFCA59"/>
<path fill-rule="evenodd" clip-rule="evenodd" d="M344.985 241.198L344.005 242.583L345.395 241.606L345.988 244.922L346.57 241.606L347.949 242.583L346.979 241.198L350.309 240.607L346.979 240.028L347.949 238.654L346.57 239.609L345.988 236.304L345.395 239.621L344.005 238.654L344.976 240.028L341.656 240.607L344.985 241.198Z" fill="#FEFEFE"/>
<path fill-rule="evenodd" clip-rule="evenodd" d="M322.401 208.051L327.442 205.131L326.485 205.882L321.444 208.8L322.401 208.051Z" fill="#FFD56D"/>
<path fill-rule="evenodd" clip-rule="evenodd" d="M301.778 172.67L306.822 169.748L308.041 169.481L302.996 172.399L301.778 172.67Z" fill="#FBDF8B"/>
<path fill-rule="evenodd" clip-rule="evenodd" d="M324.566 207.425L329.611 204.507L328.887 205.558L323.833 208.479L324.566 207.425Z" fill="#FFD56D"/>
<path fill-rule="evenodd" clip-rule="evenodd" d="M303.48 171.08L308.524 168.161L309.87 168.236L304.826 171.155L303.48 171.08Z" fill="#FFD56D"/>
<path fill-rule="evenodd" clip-rule="evenodd" d="M326.41 206.182L331.451 203.263L330.969 204.584L325.924 207.503L326.41 206.182Z" fill="#FFD56D"/>
<path fill-rule="evenodd" clip-rule="evenodd" d="M305.559 170.103L310.601 167.185L312.044 167.614L307.003 170.534L305.559 170.103Z" fill="#FFD56D"/>
<path fill-rule="evenodd" clip-rule="evenodd" d="M327.84 204.358L332.885 201.44L332.669 202.996L327.627 205.915L327.84 204.358Z" fill="#FBDF8B"/>
<path fill-rule="evenodd" clip-rule="evenodd" d="M307.949 169.781L312.993 166.862L314.469 167.624L309.428 170.543L307.949 169.781Z" fill="#FFD56D"/>
<path fill-rule="evenodd" clip-rule="evenodd" d="M328.889 203.757L333.93 200.839L332.886 201.44L327.842 204.359L328.889 203.757Z" fill="#383A3F"/>
<path fill-rule="evenodd" clip-rule="evenodd" d="M328.835 202.028L333.879 199.111L333.931 200.839L328.889 203.757L328.835 202.028Z" fill="#FBDF8B"/>
<path fill-rule="evenodd" clip-rule="evenodd" d="M309.432 170.543L314.473 167.625L315.626 167.208L310.584 170.126L309.432 170.543Z" fill="#FBDF8B"/>
<path fill-rule="evenodd" clip-rule="evenodd" d="M310.582 170.126L315.624 167.208L317.089 168.28L312.046 171.2L310.582 170.126Z" fill="#FFD56D"/>
<path fill-rule="evenodd" clip-rule="evenodd" d="M329.665 201.107L334.707 198.187L333.879 199.112L328.835 202.028L329.665 201.107Z" fill="#FFD56D"/>
<path fill-rule="evenodd" clip-rule="evenodd" d="M329.341 199.261L334.384 196.342L334.706 198.187L329.665 201.107L329.341 199.261Z" fill="#FBDF8B"/>
<path fill-rule="evenodd" clip-rule="evenodd" d="M312.045 171.2L317.089 168.281L318.382 168.205L313.341 171.123L312.045 171.2Z" fill="#FBDF8B"/>
<path fill-rule="evenodd" clip-rule="evenodd" d="M313.339 171.123L318.38 168.205L319.79 169.547L314.75 172.467L313.339 171.123Z" fill="#FFD56D"/>
<path fill-rule="evenodd" clip-rule="evenodd" d="M329.934 198.047L334.977 195.128L334.384 196.342L329.341 199.261L329.934 198.047Z" fill="#FFD56D"/>
<path fill-rule="evenodd" clip-rule="evenodd" d="M329.353 196.16L334.397 193.24L334.979 195.128L329.934 198.046L329.353 196.16Z" fill="#FBDF8B"/>
<path fill-rule="evenodd" clip-rule="evenodd" d="M314.751 172.466L319.794 169.546L321.204 169.825L316.165 172.744L314.751 172.466Z" fill="#FBDF8B"/>
<path fill-rule="evenodd" clip-rule="evenodd" d="M316.166 172.745L321.207 169.826L322.501 171.382L317.446 174.3L316.166 172.745Z" fill="#FFD56D"/>
<path fill-rule="evenodd" clip-rule="evenodd" d="M329.688 194.701L334.73 191.782L334.397 193.242L329.353 196.16L329.688 194.701Z" fill="#FFD56D"/>
<path fill-rule="evenodd" clip-rule="evenodd" d="M328.855 192.822L333.899 189.904L334.728 191.782L329.686 194.701L328.855 192.822Z" fill="#FBDF8B"/>
<path fill-rule="evenodd" clip-rule="evenodd" d="M317.444 174.3L322.499 171.382L323.964 172.002L318.921 174.923L317.444 174.3Z" fill="#FBDF8B"/>
<path fill-rule="evenodd" clip-rule="evenodd" d="M318.92 174.923L323.963 172.003L325.105 173.732L320.064 176.65L318.92 174.923Z" fill="#FFD56D"/>
<path fill-rule="evenodd" clip-rule="evenodd" d="M328.92 191.159L333.964 188.241L333.899 189.904L328.855 192.822L328.92 191.159Z" fill="#FFD56D"/>
<path fill-rule="evenodd" clip-rule="evenodd" d="M327.886 189.354L332.928 186.436L333.963 188.24L328.92 191.158L327.886 189.354Z" fill="#FBDF8B"/>
<path fill-rule="evenodd" clip-rule="evenodd" d="M320.068 176.65L325.109 173.731L326.574 174.675L321.533 177.594L320.068 176.65Z" fill="#FBDF8B"/>
<path fill-rule="evenodd" clip-rule="evenodd" d="M321.528 177.594L326.569 174.675L327.528 176.51L322.487 179.429L321.528 177.594Z" fill="#FFD56D"/>
<path fill-rule="evenodd" clip-rule="evenodd" d="M327.68 187.564L332.72 184.645L332.925 186.435L327.884 189.354L327.68 187.564Z" fill="#FFD56D"/>
<path fill-rule="evenodd" clip-rule="evenodd" d="M326.462 185.901L331.506 182.982L332.721 184.646L327.68 187.564L326.462 185.901Z" fill="#FBDF8B"/>
<path fill-rule="evenodd" clip-rule="evenodd" d="M322.49 179.429L327.531 176.51L328.965 177.743L323.924 180.664L322.49 179.429Z" fill="#FBDF8B"/>
<path fill-rule="evenodd" clip-rule="evenodd" d="M323.923 180.664L328.965 177.743L329.687 179.632L324.644 182.552L323.923 180.664Z" fill="#FFD56D"/>
<path fill-rule="evenodd" clip-rule="evenodd" d="M325.989 184.022L331.032 181.103L331.507 182.982L326.462 185.901L325.989 184.022Z" fill="#FFD56D"/>
<path fill-rule="evenodd" clip-rule="evenodd" d="M316.164 172.745L317.443 174.301L318.92 174.923L320.064 176.65L321.529 177.594L322.488 179.429L323.922 180.664L324.643 182.552L325.989 184.022L326.463 185.901L327.681 187.564L327.886 189.355L328.919 191.159L328.856 192.822L329.686 194.701L329.351 196.16L329.933 198.047L329.34 199.261L329.665 201.107L328.834 202.028L328.889 203.757L327.841 204.359L327.629 205.915L326.41 206.183L325.925 207.503L324.567 207.427L323.835 208.48L322.401 208.049L321.443 208.801L319.967 208.039L318.825 208.459L317.359 207.385L316.056 207.46L314.654 206.118L313.242 205.839L311.951 204.282L310.483 203.66L309.342 201.922L307.866 200.988L306.918 199.153L305.485 197.92L304.753 196.031L303.417 194.56L302.932 192.681L301.724 191.02L301.519 189.217L300.486 187.423L300.55 185.763L299.719 183.884L300.055 182.423L299.473 180.535L300.066 179.324L299.741 177.478L300.572 176.553L300.517 174.824L301.563 174.215L301.777 172.67L302.995 172.4L303.48 171.082L304.827 171.156L305.562 170.105L307.004 170.534L307.951 169.781L309.43 170.543L310.583 170.126L312.046 171.2L313.341 171.123L314.752 172.467L316.164 172.745Z" fill="#FFCA59"/>
<path fill-rule="evenodd" clip-rule="evenodd" d="M324.642 182.552L329.686 179.632L331.031 181.103L325.988 184.022L324.642 182.552Z" fill="#FBDF8B"/>
<path fill-rule="evenodd" clip-rule="evenodd" d="M306.8 174.998C305.776 176.405 305.183 178.377 305.174 180.847C305.163 188.229 310.367 197.221 316.833 200.936C319.893 202.695 322.682 202.952 324.763 201.943C322.727 204.744 318.966 205.238 314.665 202.758C308.211 199.045 302.997 190.052 303.007 182.66C303.03 178.776 304.484 176.114 306.8 174.998Z" fill="#FBDF8B"/>
<path fill-rule="evenodd" clip-rule="evenodd" d="M316.833 200.935C310.367 197.221 305.163 188.229 305.174 180.847C305.185 178.378 305.777 176.405 306.8 174.998C308.89 173.988 311.681 174.245 314.741 176.005C321.196 179.719 326.411 188.711 326.388 196.106C326.378 198.575 325.796 200.55 324.762 201.942C322.683 202.951 319.892 202.694 316.832 200.934L316.833 200.936L316.833 200.935Z" fill="#FCB945"/>
<path fill-rule="evenodd" clip-rule="evenodd" d="M315.491 195.967L316.527 195.376V197.448L315.491 198.047V195.967Z" fill="#FBDF8B"/>
<path fill-rule="evenodd" clip-rule="evenodd" d="M310.741 189.54L311.774 188.937C312.183 189.517 312.657 190.085 313.219 190.644C313.768 191.192 314.327 191.664 314.92 192.071L313.886 192.662C313.293 192.266 312.724 191.792 312.183 191.244C311.623 190.687 311.15 190.119 310.739 189.539L310.741 189.54V189.54Z" fill="#FBDF8B"/>
<path fill-rule="evenodd" clip-rule="evenodd" d="M315.504 193.52L316.539 192.919C316.928 193.048 317.229 193.059 317.422 192.941L316.376 193.542C316.194 193.65 315.894 193.65 315.503 193.52H315.504Z" fill="#FBDF8B"/>
<path fill-rule="evenodd" clip-rule="evenodd" d="M315.518 190.954L316.554 190.363L316.542 192.919L315.507 193.52L315.518 190.954Z" fill="#FBDF8B"/>
<path fill-rule="evenodd" clip-rule="evenodd" d="M313.016 184.194L314.061 183.594L314.028 183.602C313.836 183.731 313.737 183.958 313.737 184.28C313.737 184.591 313.844 184.902 314.051 185.224C314.243 185.535 314.546 185.879 314.934 186.231L313.901 186.835C313.512 186.468 313.211 186.137 313.017 185.826C312.801 185.502 312.705 185.19 312.705 184.879C312.705 184.558 312.801 184.332 312.995 184.203L313.017 184.194H313.016Z" fill="#FBDF8B"/>
<path fill-rule="evenodd" clip-rule="evenodd" d="M319.395 195.611L318.358 196.201C318.973 195.849 319.286 195.183 319.286 194.195C319.295 193.379 319.114 192.606 318.757 191.91L319.79 191.308C320.148 192.004 320.331 192.777 320.331 193.594C320.32 194.581 320.009 195.245 319.394 195.61L319.395 195.612L319.395 195.611Z" fill="#FBDF8B"/>
<path fill-rule="evenodd" clip-rule="evenodd" d="M315.515 188.229L316.561 187.627C317.315 188.273 317.951 188.861 318.479 189.409C319.005 189.967 319.437 190.601 319.792 191.31L318.759 191.911C318.404 191.192 317.96 190.568 317.443 190.011C316.916 189.461 316.281 188.86 315.515 188.229V188.229Z" fill="#FBDF8B"/>
<path fill-rule="evenodd" clip-rule="evenodd" d="M315.526 185.073L316.561 184.472V187.628L315.515 188.229L315.526 185.073Z" fill="#FBDF8B"/>
<path fill-rule="evenodd" clip-rule="evenodd" d="M311.031 181.478L312.075 180.879L312.119 180.846C312.764 180.491 313.715 180.576 314.953 181.125L313.908 181.727C312.679 181.179 311.731 181.092 311.075 181.449L311.031 181.479V181.478V181.478Z" fill="#FBDF8B"/>
<path fill-rule="evenodd" clip-rule="evenodd" d="M315.539 180.599L316.584 179.996L316.572 182.027L315.539 182.626V180.599Z" fill="#FBDF8B"/>
<path fill-rule="evenodd" clip-rule="evenodd" d="M313.922 179.676L314.955 179.075L316.581 179.996L315.537 180.599L313.922 179.676Z" fill="#FBDF8B"/>
<path fill-rule="evenodd" clip-rule="evenodd" d="M318.826 185.653L319.86 185.054L319.051 186.866L318.007 187.467L318.826 185.653Z" fill="#FBDF8B"/>
<path fill-rule="evenodd" clip-rule="evenodd" d="M315.539 182.626L316.572 182.027C317.91 182.917 318.998 183.926 319.86 185.054L318.827 185.653C317.962 184.527 316.864 183.517 315.539 182.628V182.626Z" fill="#FBDF8B"/>
<path fill-rule="evenodd" clip-rule="evenodd" d="M316.377 193.54C316.57 193.423 316.678 193.22 316.678 192.907C316.678 192.606 316.582 192.286 316.377 191.984C316.183 191.663 315.894 191.328 315.516 190.953L315.505 193.519C315.894 193.649 316.194 193.649 316.377 193.54ZM313.9 186.835L313.911 184.204C313.49 184.066 313.199 184.076 312.994 184.204C312.801 184.333 312.703 184.56 312.703 184.88C312.703 185.191 312.801 185.502 313.017 185.826C313.21 186.138 313.512 186.469 313.9 186.836V186.835ZM318.759 191.911C319.116 192.606 319.295 193.379 319.287 194.195C319.287 195.205 318.953 195.892 318.308 196.235C317.66 196.59 316.723 196.505 315.493 195.966V198.047L313.867 197.115L313.878 195.097C313.081 194.581 312.315 193.981 311.593 193.294C310.862 192.608 310.292 191.942 309.837 191.288L310.742 189.539C311.152 190.119 311.625 190.687 312.186 191.245C312.725 191.793 313.297 192.266 313.89 192.662V189.559C313.125 188.906 312.477 188.304 311.951 187.735C311.422 187.178 310.979 186.546 310.624 185.837C310.269 185.129 310.097 184.356 310.097 183.529C310.097 182.5 310.419 181.813 311.077 181.449C311.734 181.094 312.681 181.179 313.911 181.728L313.922 179.678L315.537 180.6V182.627C316.861 183.519 317.962 184.528 318.824 185.654L318.005 187.468C317.195 186.471 316.376 185.676 315.526 185.074L315.515 188.23C316.279 188.862 316.916 189.464 317.443 190.013C317.961 190.57 318.404 191.193 318.758 191.912L318.759 191.911H318.759Z" fill="#FFCA59"/>
<path fill-rule="evenodd" clip-rule="evenodd" d="M313.482 173.055L312.513 174.429L313.903 173.452L314.485 176.78L315.067 173.452L316.446 174.429L315.477 173.045L318.806 172.454L315.477 171.875L316.446 170.501L315.067 171.466L314.485 168.151L313.893 171.466L312.513 170.501L313.472 171.875L310.153 172.454L313.482 173.055Z" fill="#FEFEFE"/>
<path fill-rule="evenodd" clip-rule="evenodd" d="M134.321 306.665L134.314 309.374L69.3174 346.389L69.3282 343.687L134.321 306.665Z" fill="#232D41"/>
<path fill-rule="evenodd" clip-rule="evenodd" d="M69.3276 343.687L69.3173 346.389L0 306.118L0.00985861 303.409L69.3276 343.687Z" fill="#1C2F53"/>
<path fill-rule="evenodd" clip-rule="evenodd" d="M134.322 306.665L69.3299 343.687L0.0117188 303.409L64.0969 266.235L134.322 306.665Z" fill="#8797AF"/>
<path fill-rule="evenodd" clip-rule="evenodd" d="M134.092 97.5333L134.323 306.665L117.788 316.11L117.558 170.091L134.092 97.5333Z" fill="#8797AF"/>
<path fill-rule="evenodd" clip-rule="evenodd" d="M109.397 320.904L39.3041 280.566L39.0764 134.991L109.159 175.61L109.397 320.904Z" fill="#3A5FA3"/>
<path fill-rule="evenodd" clip-rule="evenodd" d="M109.397 320.904L39.3041 280.567L39.0764 187.589L109.159 228.206L109.397 320.904Z" fill="#ACD357"/>
<path fill-rule="evenodd" clip-rule="evenodd" d="M63.4428 166.584L45.4048 156.199L45.3452 151.091L63.3832 161.539L63.4428 166.584Z" fill="#D9DADA"/>
<path fill-rule="evenodd" clip-rule="evenodd" d="M99.509 184.117L81.4705 173.735L81.418 172.002L99.4498 182.453L99.509 184.117Z" fill="#67382F"/>
<path fill-rule="evenodd" clip-rule="evenodd" d="M109.159 175.61L39.0764 134.991L57.7819 55.9343L127.869 96.5546L109.159 175.61Z" fill="#4C628C"/>
<path fill-rule="evenodd" clip-rule="evenodd" d="M127.867 96.5547L57.7808 55.9344L67.5727 50.1678L137.659 90.7909L127.867 96.5547Z" fill="#0E357E"/>
<path fill-rule="evenodd" clip-rule="evenodd" d="M137.659 90.7914L117.556 175.559L117.786 316.11L109.396 320.904L109.159 175.61L127.868 96.5547L137.659 90.7914Z" fill="#3A5FA3"/>
<path fill-rule="evenodd" clip-rule="evenodd" d="M43.2295 132.886L60.2783 61.7053L123.579 98.3953L106.587 169.367L43.2295 132.886Z" fill="#FEFEFE"/>
<path fill-rule="evenodd" clip-rule="evenodd" d="M45.9644 131.711L61.8494 65.3791L120.84 99.5631L105.001 165.706L45.9644 131.711Z" fill="#61C7CD"/>
<path fill-rule="evenodd" clip-rule="evenodd" d="M85.7893 192.4L75.6753 186.544L75.7387 186.104L85.8484 191.961L85.7893 192.4Z" fill="#FEFEFE"/>
<path fill-rule="evenodd" clip-rule="evenodd" d="M96.2798 180.7C89.5107 185.522 86.0541 189.387 85.7888 192.4L86.6381 192.021C86.7911 190.191 88.8131 187.018 96.2798 181.68V180.701V180.7Z" fill="#9A9999"/>
<path fill-rule="evenodd" clip-rule="evenodd" d="M75.7397 186.104L85.849 191.961C86.395 189.005 89.8624 185.267 96.3367 180.659L86.2274 174.801C79.7499 179.414 76.2815 183.148 75.7402 186.104H75.7397Z" fill="#FEFEFE"/>
<path fill-rule="evenodd" clip-rule="evenodd" d="M102.964 150.504C102.838 151.014 102.39 151.227 101.964 150.986L52.1638 122.596C51.7338 122.349 51.4859 121.738 51.6146 121.234L61.5563 82.3748C61.6863 81.8723 62.1375 81.663 62.5675 81.907L112 110.285C112.424 110.527 112.665 111.129 112.542 111.635L102.964 150.504H102.964Z" fill="#23B2C4"/>
<path fill-rule="evenodd" clip-rule="evenodd" d="M86.4177 104.727C93.0943 108.355 95.5609 116.705 91.9245 123.367C88.288 130.029 79.9204 132.49 73.2443 128.862C66.5676 125.233 64.1011 116.884 67.7375 110.221C71.374 103.559 79.742 101.099 86.4177 104.727Z" fill="#1F478D"/>
<path fill-rule="evenodd" clip-rule="evenodd" d="M70.2144 115.56L67.0854 118.75L71.9354 121.386L75.7681 117.357L76.5004 116.613C75.7732 116.3 71.2157 114.475 70.2144 115.56Z" fill="#FEFEFE"/>
<path fill-rule="evenodd" clip-rule="evenodd" d="M81.5537 116.182L81.1908 111.91L76.5291 109.376C76.3404 109.273 75.7968 109.223 75.8484 109.577L76.1883 113.592C76.6747 113.449 78.0267 114.265 79.0971 114.847L79.6013 115.121C80.2313 115.463 80.9237 115.839 81.5537 116.183V116.182Z" fill="url(#paint0_linear)"/>
<path fill-rule="evenodd" clip-rule="evenodd" d="M78.1942 125.032L83.4217 127.872C83.1128 127.541 82.8433 126.988 82.7973 126.473L82.164 120.751C81.1448 120.522 80.1941 120.17 79.3134 119.69L76.7305 118.287L77.375 123.689C77.4215 124.203 77.6905 124.757 78.1952 125.032H78.1942Z" fill="url(#paint1_linear)"/>
<path fill-rule="evenodd" clip-rule="evenodd" d="M79.7522 107.215L76.2214 109.046C75.8956 109.195 75.8613 109.257 75.8209 109.48C76.1876 109.108 76.7199 109.479 76.9716 109.616L81.6333 112.149L82.4515 112.594L84.5298 113.724C85.0965 114.032 85.4063 114.363 85.55 114.849C85.6584 115.397 85.6133 115.78 85.2462 116.151C84.88 116.521 84.4223 116.763 83.7472 116.802C83.0722 116.843 82.4994 116.695 81.9333 116.388L78.1532 114.332L77.9649 114.231C77.3345 113.888 76.6476 113.351 75.8693 113.581L71.7484 114.845C71.262 114.988 70.7757 115.131 70.3809 115.406C70.7358 115.355 71.1879 115.274 71.5029 115.445L75.5336 117.636L75.9115 117.841L76.4786 118.149L77.3608 118.629L79.2498 119.656C81.2023 120.717 83.1778 121.139 85.2387 120.954C87.2363 120.736 88.8329 120.055 90.0971 118.787C91.298 117.484 91.6355 116.119 91.2398 114.599C90.8436 113.08 89.6347 111.852 87.6822 110.791L81.8253 107.608C81.1948 107.266 80.3075 106.945 79.7522 107.214V107.215Z" fill="#FEFEFE"/>
<path fill-rule="evenodd" clip-rule="evenodd" d="M69.447 116.366C70.5686 115.509 74.5481 117.345 75.4011 117.728L75.5331 117.636L71.5018 115.445C70.9976 115.171 70.546 115.252 70.0822 115.652L69.4475 116.365L69.447 116.366Z" fill="#D9DADA"/>
<path fill-rule="evenodd" clip-rule="evenodd" d="M127.827 96.1543L57.7969 55.4839L67.5719 49.7033L137.601 90.3863L127.827 96.1543Z" fill="#59AAE2"/>
<path fill-rule="evenodd" clip-rule="evenodd" d="M127.83 46.4506L57.8005 5.76844L67.5756 0L137.605 40.6821L127.83 46.4506Z" fill="#4C628C"/>
<path fill-rule="evenodd" clip-rule="evenodd" d="M127.823 96.1532L137.597 90.5018V40.6812L127.823 46.4496V96.1532Z" fill="#4C628C"/>
<path fill-rule="evenodd" clip-rule="evenodd" d="M127.746 46.3226L57.7161 5.64047V55.3553L127.746 96.0262V46.3226Z" fill="#3A5FA3"/>
<path fill-rule="evenodd" clip-rule="evenodd" d="M124.055 48.6156L61.5532 12.3091V53.3191L124.055 89.6255V48.6156Z" fill="#3F3F3F"/>
<path fill-rule="evenodd" clip-rule="evenodd" d="M121.556 50.0536V85.2604L64.0649 51.8674V16.661L121.556 50.0536Z" fill="white"/>
<path fill-rule="evenodd" clip-rule="evenodd" d="M83.6777 49.7035C84.1923 49.9728 84.7077 50.2416 85.2227 50.5226C85.3748 49.9728 85.5269 49.4108 85.6795 48.8497C85.9598 48.9902 86.2292 49.1424 86.51 49.2824C86.6865 50.0079 86.8621 50.7333 87.0372 51.4705C87.5991 51.7632 88.1615 52.0554 88.7235 52.3598C88.4892 51.4939 88.2554 50.6162 88.0212 49.7508C88.0564 49.7508 88.1141 49.7508 88.1615 49.7386C88.2315 49.7737 88.3366 49.7508 88.454 49.7269C88.5944 49.6801 88.7005 49.6566 88.8408 49.563C88.946 49.4932 89.0864 49.4108 89.1915 49.2239C89.3328 49.0951 89.4028 48.8965 89.4732 48.6858C89.6131 48.1594 89.5079 47.6213 89.2262 47.0827C88.8986 46.486 88.454 46.0411 87.846 45.7372C86.932 45.2693 86.0302 44.8127 85.1298 44.3443C84.8828 45.2337 84.6378 46.1348 84.403 47.0237C84.158 47.913 83.9237 48.8019 83.6885 49.6918L83.6777 49.7035ZM87.8803 47.8784C87.8456 48.0189 87.739 48.1243 87.5986 48.1711C87.4587 48.2179 87.2832 48.1711 87.1066 48.0774C86.7442 47.8901 86.3935 47.7032 86.0297 47.5159C86.1363 47.1763 86.2414 46.8256 86.3466 46.486C86.686 46.6617 87.0489 46.8485 87.4005 47.0241C87.5761 47.1178 87.716 47.2232 87.8212 47.3988C87.8916 47.551 87.9263 47.7262 87.8916 47.8784H87.8803ZM91.6726 53.8922C92.1646 54.1498 92.6561 54.4069 93.1359 54.6645C93.3002 54.021 93.4758 53.3892 93.6401 52.7458C93.8035 52.1023 93.979 51.4705 94.1433 50.827C93.6636 50.5811 93.1833 50.3357 92.7035 50.0898C92.5392 50.745 92.3641 51.4002 92.1993 52.0437C92.1294 52.2423 92.0242 52.3945 91.8364 52.4648C91.6965 52.5121 91.521 52.5003 91.2984 52.3828C91.1571 52.3125 91.0168 52.1955 90.9468 51.9969C90.8417 51.8213 90.8417 51.6574 90.8769 51.5169C91.0642 50.8265 91.2623 50.1362 91.4496 49.4459C90.9703 49.2 90.49 48.9541 90.022 48.7087C89.7995 49.4693 89.5999 50.2299 89.3896 50.9783C89.2845 51.4813 89.3197 51.9379 89.5422 52.3711C89.7525 52.8038 90.0694 53.1317 90.5248 53.3775C90.7365 53.4829 90.9585 53.5649 91.2045 53.5761C91.4271 53.6112 91.5674 53.5644 91.6374 53.5644C91.7087 53.5176 91.7787 53.5176 91.8139 53.4942C91.7665 53.6346 91.7195 53.763 91.6726 53.9035V53.8918V53.8922ZM96.2503 51.9032C95.7583 51.6456 95.2785 51.4002 94.7982 51.1544C94.6231 51.7979 94.4476 52.4296 94.271 53.0731C94.0959 53.7054 93.9208 54.3484 93.7452 54.9806C94.225 55.2382 94.7053 55.4836 95.1973 55.7412C95.3729 55.109 95.5602 54.4659 95.747 53.8337C95.7822 53.6112 95.9226 53.4829 96.0747 53.3892C96.2625 53.319 96.4376 53.3307 96.6249 53.4244C96.8122 53.518 96.9526 53.6702 97.0225 53.8337C97.1051 53.9976 97.1051 54.1962 97.0699 54.3835C96.8822 55.0621 96.6953 55.7412 96.5202 56.4194C97.0122 56.6769 97.492 56.9345 97.984 57.1921C98.1821 56.4315 98.4046 55.671 98.6037 54.9104C98.7562 54.4538 98.721 53.9864 98.4985 53.5063C98.276 53.0619 97.9474 52.6872 97.5028 52.4648C97.245 52.3364 97.023 52.3013 96.8127 52.3125C96.5549 52.2657 96.415 52.3125 96.3329 52.3125C96.2277 52.336 96.193 52.3598 96.1456 52.4179C96.1803 52.2423 96.2155 52.0789 96.2507 51.9032H96.2503Z" fill="#71B92F"/>
<path fill-rule="evenodd" clip-rule="evenodd" d="M100.3 52.1028C100.042 53.0272 99.7848 53.9513 99.5393 54.864C99.2806 55.7885 99.0351 56.7013 98.7778 57.6253C99.3276 57.918 99.8895 58.2107 100.44 58.503C100.592 57.9527 100.733 57.4029 100.885 56.853C101.259 57.0404 101.634 57.2394 101.996 57.438C102.676 57.7892 103.273 57.8946 103.8 57.7541C104.362 57.5902 104.712 57.2745 104.853 56.6891C105.005 56.1393 104.923 55.5661 104.584 54.9811C104.244 54.3493 103.752 53.8932 103.073 53.5424C102.125 53.0624 101.2 52.5828 100.275 52.1149L100.298 52.1032L100.3 52.1028ZM102.606 54.8523C102.841 54.9694 102.98 55.086 103.063 55.2851C103.168 55.4607 103.215 55.6476 103.168 55.7998C103.133 55.9871 103.028 56.0573 102.841 56.1159C102.688 56.1627 102.501 56.151 102.313 56.0573C101.962 55.87 101.611 55.6949 101.259 55.5192C101.365 55.1216 101.482 54.7235 101.599 54.3376C101.938 54.5133 102.266 54.6767 102.605 54.8523H102.606ZM107.839 62.3756C108.073 61.5682 108.296 60.7496 108.529 59.9422C108.646 59.5094 108.564 59.0411 108.26 58.5498C107.956 58.0581 107.534 57.637 106.914 57.3214C106.691 57.2043 106.457 57.1223 106.222 57.0989C106 57.017 105.802 57.0052 105.649 57.017C105.497 56.9818 105.345 57.0287 105.228 57.0521C105.075 57.0521 105.005 57.0989 104.97 57.1219C104.935 57.1453 104.9 57.1692 104.853 57.1453C105.04 57.5199 105.227 57.8941 105.427 58.2683C105.474 58.2566 105.532 58.2332 105.579 58.2215C105.649 58.1742 105.767 58.1981 105.954 58.2098C106.153 58.2215 106.293 58.2566 106.492 58.362C106.691 58.4674 106.844 58.5845 106.914 58.7128C107.031 58.8533 107.031 58.9821 106.984 59.0875C106.551 58.947 106.117 58.8065 105.697 58.666C105.24 58.5489 104.865 58.5255 104.561 58.6191C104.256 58.666 104.07 58.8997 103.988 59.1919C103.917 59.5197 103.953 59.8354 104.186 60.1983C104.374 60.5496 104.713 60.8535 105.123 61.0643C105.346 61.1814 105.58 61.2633 105.802 61.2516C106.037 61.2867 106.188 61.2399 106.26 61.2399C106.33 61.1931 106.365 61.1814 106.411 61.1579C106.376 61.3102 106.34 61.4507 106.294 61.6024C106.798 61.8712 107.312 62.1405 107.816 62.4098L107.839 62.3747L107.839 62.3756ZM105.895 60.2695C105.637 60.129 105.555 59.9656 105.591 59.7431C105.626 59.6729 105.661 59.6143 105.777 59.5909C105.849 59.5436 105.965 59.5675 106.082 59.5787C106.316 59.6607 106.561 59.7426 106.808 59.8363C106.796 59.8714 106.773 59.9066 106.773 59.9417C106.738 60.129 106.621 60.2812 106.422 60.3042C106.269 60.3978 106.082 60.3744 105.884 60.2812L105.894 60.2691L105.895 60.2695ZM109.466 63.3001C109.267 63.4874 108.997 63.4757 108.693 63.3118C108.494 63.2064 108.341 63.0893 108.225 62.9844C108.119 63.3938 108.013 63.7918 107.908 64.2016C107.931 64.2133 107.956 64.2251 107.991 64.2368C108.073 64.3187 108.143 64.4002 108.295 64.4826C108.448 64.5997 108.564 64.67 108.716 64.7515C109.138 64.9739 109.571 65.0325 109.957 64.9388C110.344 64.8568 110.764 64.5763 111.162 64.108C111.631 63.605 112.111 63.0903 112.579 62.5751C113.059 62.0604 113.539 61.5457 114.02 61.0423C113.446 60.7496 112.884 60.4573 112.322 60.1763C111.83 60.8081 111.339 61.4282 110.847 62.06C110.789 61.1472 110.742 60.2466 110.695 59.3333C110.133 59.0406 109.583 58.7606 109.021 58.4796C109.115 59.2635 109.208 60.0475 109.29 60.8315C109.373 61.615 109.478 62.4107 109.571 63.1947C109.535 63.2298 109.489 63.265 109.453 63.3001H109.466Z" fill="#1F478D"/>
<path fill-rule="evenodd" clip-rule="evenodd" d="M76.0609 35.0664C77.8289 35.9552 79.4443 37.5935 80.6142 39.5474C81.7977 41.5134 82.5347 43.7829 82.5347 45.8661C82.5347 47.9605 81.7977 49.4582 80.6142 50.2066C79.4321 50.9442 77.8284 50.9203 76.0609 49.9729C74.3051 49.0367 72.7245 47.3638 71.5889 45.4212C70.465 43.5024 69.7744 41.291 69.7744 39.2673C69.7744 37.2432 70.465 35.7571 71.5889 34.9966C72.7245 34.2243 74.3051 34.1892 76.0609 35.0668V35.0664Z" fill="#1F478D"/>
<path fill-rule="evenodd" clip-rule="evenodd" d="M71.9015 42.2612C71.7142 42.9281 71.5274 43.6068 71.3518 44.2737C72.1945 44.7186 73.0376 45.163 73.8686 45.6075C74.0911 44.7537 74.3019 43.9107 74.5239 43.0569C74.5709 42.893 74.6173 42.7408 74.6526 42.5774C74.2897 42.4252 72.0654 41.5826 71.8898 42.2612H71.9015Z" fill="#FEFEFE"/>
<path fill-rule="evenodd" clip-rule="evenodd" d="M76.6163 42.0871C76.2534 41.2446 75.8792 40.4142 75.5159 39.5834C74.6962 39.1619 73.8883 38.7526 73.0808 38.3311C72.9752 38.2842 72.7527 38.2842 72.8466 38.4833C73.186 39.2556 73.5259 40.0391 73.8653 40.8231C74.0291 40.7177 74.7549 41.127 75.3173 41.4202C75.4107 41.467 75.4929 41.5134 75.5863 41.5602C75.914 41.7241 76.2769 41.9232 76.6163 42.0871Z" fill="url(#paint2_linear)"/>
<path fill-rule="evenodd" clip-rule="evenodd" d="M73.9048 36.8919C73.5654 37.3129 73.2255 37.7344 72.8861 38.1437C72.7926 38.2491 72.7926 38.2842 72.8279 38.4247C72.8861 38.191 73.1907 38.3774 73.3194 38.4481C74.1273 38.8574 74.9353 39.2785 75.7545 39.7C75.8953 39.7702 76.0474 39.8522 76.1878 39.9224C76.5511 40.1098 76.9135 40.2971 77.2886 40.4844C77.5929 40.6366 77.7919 40.8235 77.9557 41.0923C78.1201 41.4085 78.1905 41.6426 78.1201 41.8763C78.0487 42.11 77.921 42.2739 77.6511 42.3329C77.3821 42.391 77.1243 42.3329 76.8201 42.1807C76.153 41.8295 75.4855 41.4904 74.8301 41.1509C74.7949 41.1392 74.7597 41.1157 74.7367 41.104C74.4085 40.9401 74.0109 40.6474 73.7532 40.823C73.2968 41.1392 72.8401 41.4553 72.3715 41.7709C72.2082 41.8763 72.0439 41.9817 71.9504 42.1686C72.0791 42.1217 72.2429 42.0515 72.4068 42.1334C73.1091 42.4959 73.7996 42.8589 74.5141 43.2335C74.5841 43.2687 74.6428 43.3033 74.7127 43.3384C74.8062 43.3858 74.9118 43.4438 75.0169 43.4907C75.1695 43.5726 75.3216 43.6541 75.4855 43.7361C75.8136 43.9117 76.1408 44.0756 76.4807 44.2512C77.5112 44.7889 78.4238 44.9533 79.2322 44.7425C80.0045 44.5201 80.5195 44.0405 80.7542 43.2214C80.9528 42.3788 80.7889 41.5485 80.2744 40.6591C79.7702 39.7698 78.9857 39.1029 77.944 38.5764C76.9027 38.05 75.8723 37.5236 74.8418 37.0085C74.5141 36.8446 74.0813 36.7045 73.917 36.8914H73.9053L73.9048 36.8919Z" fill="#FEFEFE"/>
<path fill-rule="evenodd" clip-rule="evenodd" d="M71.7764 42.7764C72.0336 42.2149 74.0359 43.1037 74.4687 43.2911C74.4687 43.2681 74.4917 43.256 74.5034 43.233C73.8011 42.8705 73.0988 42.5076 72.3965 42.1329C72.1388 41.9929 71.9749 42.0627 71.8698 42.3202C71.8346 42.4724 71.8111 42.6242 71.7764 42.7647V42.7764Z" fill="#D9DADA"/>
<path fill-rule="evenodd" clip-rule="evenodd" d="M106.357 237.175C106.357 237.175 99.5018 264.269 102.473 273.327C105.445 282.402 112.982 312.151 112.982 312.151C112.982 312.151 125.093 283.676 125.093 282.856C125.093 282.056 111.497 238.7 106.357 237.175Z" fill="#2D3D5C"/>
<path fill-rule="evenodd" clip-rule="evenodd" d="M113.953 362.88C113.953 362.88 109.468 379.77 110.612 388.214C111.755 396.674 115.48 416.284 115.384 418.989C115.287 421.71 112.808 425.797 113.476 427.054C114.142 428.314 128.795 436.82 129.654 435.846C132.739 432.779 122.824 430.057 123.112 411.818C123.399 393.562 127.118 370.068 126.547 366.955C125.975 363.857 113.952 362.88 113.952 362.88H113.953V362.88Z" fill="#F2C0AA"/>
<path fill-rule="evenodd" clip-rule="evenodd" d="M112.748 443.756C112.748 443.756 114.138 436.27 112.748 433.974C111.358 431.677 109.91 429.211 110.605 426.899C111.3 424.599 114.776 421.894 114.776 421.894C114.776 421.894 120.972 425.01 122.188 427.731C123.404 430.435 123.133 431.316 124.988 431.725C126.84 432.133 128 431.017 127.767 430.404C127.536 429.773 126.755 428.895 126.815 428.47C126.872 428.061 134.123 427.258 134.47 428.846C134.817 430.434 133.37 438.863 128.389 439.805C123.405 440.75 117.672 433.738 116.746 433.673C115.819 433.625 114.833 435.213 114.833 436.393C114.833 437.574 114.659 443.517 114.312 443.754C113.965 443.989 112.621 444.505 112.748 443.754V443.756V443.756Z" fill="#3F3F3F"/>
<path fill-rule="evenodd" clip-rule="evenodd" d="M126.723 368.087C126.723 368.087 122.237 384.976 123.382 393.42C124.529 401.865 128.249 421.472 128.155 424.193C128.06 426.916 125.578 430.987 126.245 432.244C126.916 433.517 141.568 442.01 142.424 441.053C145.509 437.985 135.594 435.263 135.884 417.009C136.169 398.765 139.89 375.275 139.318 372.162C138.745 369.046 126.723 368.087 126.723 368.087Z" fill="#FCD0B7"/>
<path fill-rule="evenodd" clip-rule="evenodd" d="M125.517 448.96C125.517 448.96 126.908 441.476 125.517 439.181C124.126 436.884 122.682 434.399 123.373 432.102C124.07 429.806 127.546 427.085 127.546 427.085C127.546 427.085 133.744 430.218 134.96 432.935C136.177 435.639 135.903 436.505 137.759 436.928C139.611 437.337 140.769 436.225 140.539 435.596C140.308 434.98 139.528 434.084 139.585 433.675C139.644 433.267 146.891 432.467 147.24 434.055C147.587 435.64 146.14 444.068 141.158 445.014C136.177 445.957 130.441 438.943 129.514 438.882C128.588 438.818 127.603 440.422 127.603 441.587C127.603 442.764 127.429 448.725 127.08 448.96C126.733 449.194 125.39 449.699 125.517 448.96V448.959V448.96Z" fill="#3F3F3F"/>
<path fill-rule="evenodd" clip-rule="evenodd" d="M127.192 320.47C134.335 321.697 141.68 319.465 147.443 314.386C147.016 312.152 146.526 310.138 145.915 308.504C141.541 296.663 145.388 281.521 145.489 279.823C145.591 278.123 148.827 243.182 145.591 240.745C142.376 238.324 141.112 238.118 137.367 238.639C133.622 239.172 117.809 231.326 114.592 231.01C111.358 230.696 104.701 235.365 105.008 244.141C105.334 252.916 111.886 282.148 113.129 286.173C114.389 290.199 112.192 297.921 110.524 302.275C109.973 303.678 109.139 306.236 108.304 309.462C110.013 315.122 119.945 319.245 127.192 320.47L127.192 320.47Z" fill="#4C628C"/>
<path fill-rule="evenodd" clip-rule="evenodd" d="M147.848 316.743C142.92 320.738 137.039 322.876 131.055 322.876C129.652 322.876 128.25 322.75 126.843 322.499C120.492 321.428 111.232 317.969 107.569 312.543C106.184 318.723 105.23 326.461 106.469 333.066C108.646 344.623 110.947 342.61 111.576 345.473C112.189 348.319 111.883 350.443 111.883 350.443C111.883 350.443 109.706 363.02 111.356 363.776C113.025 364.514 142.434 384.752 144.652 377.204C145.281 375.098 148.091 361.229 148.825 356.04C149.415 351.826 150.003 330.802 147.848 316.742L147.848 316.743Z" fill="#3F3F3F"/>
<path fill-rule="evenodd" clip-rule="evenodd" d="M126.847 322.5C128.254 322.75 129.658 322.876 131.061 322.876C137.043 322.876 142.925 320.737 147.853 316.743C147.729 315.943 147.588 315.155 147.447 314.387C141.685 319.464 134.338 321.696 127.196 320.471C119.949 319.246 110.017 315.122 108.308 309.465C108.042 310.422 107.8 311.462 107.574 312.545C111.238 317.97 120.498 321.431 126.847 322.502V322.501V322.5Z" fill="#52525F"/>
<path fill-rule="evenodd" clip-rule="evenodd" d="M113.459 288.014C113.459 288.014 124.319 296.41 138.08 294.65C138.08 294.65 123.759 300.468 113.409 290.938L113.46 288.012L113.459 288.014Z" fill="#2D3D5C"/>
<path fill-rule="evenodd" clip-rule="evenodd" d="M118.204 232.11C116.648 233.102 121.917 241.404 137.161 238.651C137.161 238.651 130.144 236.654 133.45 227.393C136.756 218.131 121.307 226.498 121.307 226.498C121.307 226.498 122.722 229.233 118.204 232.109V232.11H118.204Z" fill="#FCD0B7"/>
<path fill-rule="evenodd" clip-rule="evenodd" d="M140.553 219.531C139.92 221.842 139.045 224.171 137.458 225.93C135.015 228.606 131.168 229.597 127.588 229.39C124.004 229.155 120.583 227.865 117.209 226.608L118.406 226.511C116.778 223.964 115.129 221.37 114.234 218.476C113.34 215.568 113.258 212.283 114.725 209.623C115.944 207.407 118.082 205.882 120.278 204.686C124.228 202.53 128.603 201.164 133.081 200.725C134.548 200.583 136.052 200.535 137.478 200.927C138.902 201.305 140.246 202.173 140.98 203.476C141.507 204.464 141.653 205.628 141.732 206.779C142.057 211.041 141.653 215.378 140.553 219.53V219.531Z" fill="#FDDDC7"/>
<path fill-rule="evenodd" clip-rule="evenodd" d="M114.488 274.492C119.424 274.366 124.485 273.17 128.429 270.151C132.373 267.131 134.999 262.037 134.247 257.068C133.495 252.113 129.749 248.276 126.582 244.424C123.415 240.571 120.527 235.604 121.907 230.776C123.057 226.779 126.772 224.232 129.996 221.653C135.065 217.598 139.607 212.469 141.465 206.196C143.328 199.922 141.956 192.358 136.93 188.239C133.858 185.739 129.837 184.762 125.912 184.435C122.549 184.152 119.101 184.309 115.915 185.441C112.732 186.572 109.819 188.744 108.257 191.775C105.15 197.814 107.776 205.929 103.911 211.495C100.239 216.795 92.1536 217.518 88.8251 223.039C86.6567 226.637 87.2201 231.419 89.2138 235.114C91.2114 238.826 94.4229 241.671 97.634 244.347C100.842 247.019 104.167 249.674 106.5 253.167C107.555 254.756 108.402 256.531 108.56 258.435C108.721 260.323 108.095 262.365 106.635 263.561C104.568 265.258 101.578 264.866 98.9579 264.393C96.4994 263.94 92.6775 262.444 90.2213 262.853C86.9281 263.403 89.5556 265.889 90.879 266.88C95.2135 270.118 100.225 272.431 105.482 273.61C108.433 274.269 111.464 274.584 114.486 274.492L114.487 274.493L114.488 274.492Z" fill="#3B3C46"/>
<path fill-rule="evenodd" clip-rule="evenodd" d="M198.199 254.99C197.599 255.116 197.133 255.464 196.792 255.981L196.584 256.232C195.93 256.628 195.278 257.021 194.609 257.351C194.359 257.477 194.034 257.429 193.769 257.539C192.634 257.963 191.434 258.088 190.269 258.372C189.704 258.514 189.147 258.703 188.461 258.893C188.705 258.311 188.885 257.777 189.147 257.288C189.267 257.053 189.587 256.94 189.748 256.738C190.214 256.124 190.237 255.417 190.051 254.709C189.934 254.252 189.46 254.223 189.173 254.648C188.907 255.041 188.546 255.258 188.186 255.526C187.823 255.808 187.503 256.155 187.238 256.531C186.822 257.098 186.417 257.696 186.091 258.339C185.673 259.143 185.316 259.977 184.971 260.808C184.734 261.391 184.545 261.989 184.367 262.586C184.191 263.184 183.881 263.701 183.45 264.126C182.382 265.214 181.332 266.296 180.223 267.319C180.068 267.461 179.905 267.602 179.743 267.744C180.107 269.033 180.492 270.291 180.827 271.536C181.4 272.13 181.915 272.793 182.389 273.485L182.525 273.578C182.803 273.53 183.082 273.516 183.359 273.437C184.089 272.571 184.823 271.707 185.575 270.857C186.422 269.898 187.495 269.239 188.684 268.782C189.595 268.435 190.546 268.185 191.428 267.76C192.157 267.429 192.821 266.925 193.501 266.487C194.586 265.764 195.657 265.024 196.738 264.284C197.177 263.984 197.56 263.641 197.813 263.168C198.013 262.788 198.101 262.383 197.965 261.987C197.849 261.64 197.914 261.344 198.057 261.045C198.208 260.714 198.345 260.366 198.503 260.038C198.649 259.723 198.622 259.441 198.402 259.189C198.206 258.967 198.165 258.78 198.367 258.498C198.844 257.804 198.911 257.035 198.768 256.218L198.847 255.854C199.068 255.304 198.778 254.88 198.201 254.99L198.199 254.99Z" fill="#FCD0B7"/>
<path fill-rule="evenodd" clip-rule="evenodd" d="M138.59 254.975C138.59 254.975 135.252 235.446 143.428 239.016C151.605 242.586 153.773 254.975 154.942 261.597C156.109 268.218 158.443 279.586 158.443 279.586L181.854 265.558C184.866 267.037 186.569 268.783 184.385 272.603C184.385 272.603 157.943 295.545 152.27 293.172C146.597 290.781 138.588 254.974 138.588 254.974L138.589 254.975L138.59 254.975Z" fill="#2D3D5C"/>
<path fill-rule="evenodd" clip-rule="evenodd" d="M303.217 467.141L301.969 466.397L301.966 466.395L303.217 467.14V467.141ZM301.969 466.397L179.148 393.161L179.189 408.48V408.478L179.193 409.8L179.189 408.48C179.229 409.277 179.632 409.978 180.236 410.422L303.263 483.779V483.779C303.582 483.921 303.936 484 304.309 484C304.857 484 305.365 483.829 305.783 483.538V483.567L365.103 442.872V412.925L305.736 466.929C305.325 467.205 304.832 467.365 304.3 467.365C303.924 467.365 303.567 467.285 303.245 467.141L301.968 466.397H301.969Z" fill="#2D3D5C"/>
<path fill-rule="evenodd" clip-rule="evenodd" d="M352.71 378.003C351.464 378.759 351.493 379.949 352.772 380.647L378.184 394.489C379.463 395.185 381.53 395.138 382.777 394.383L396.644 385.949C397.89 385.192 397.861 384.002 396.583 383.306L371.17 369.463C369.888 368.765 367.824 368.814 366.581 369.573L352.71 378.003V378.003Z" fill="#3F3F3F"/>
<path fill-rule="evenodd" clip-rule="evenodd" d="M388.406 384.12C389.602 383.394 391.568 383.346 392.798 384.017C394.026 384.685 394.053 385.815 392.861 386.545C391.663 387.272 389.696 387.318 388.467 386.649C387.236 385.979 387.209 384.846 388.405 384.119L388.406 384.12Z" fill="#FFCA00"/>
<path fill-rule="evenodd" clip-rule="evenodd" d="M385.518 382.546C386.714 381.82 388.68 381.773 389.912 382.443C391.138 383.11 391.165 384.243 389.969 384.969C388.772 385.697 386.808 385.744 385.579 385.075C384.349 384.404 384.321 383.272 385.517 382.544V382.546H385.518Z" fill="#EFF2F4"/>
<path fill-rule="evenodd" clip-rule="evenodd" d="M382.624 380.972C383.819 380.243 385.783 380.197 387.013 380.867C388.244 381.535 388.271 382.668 387.076 383.393C385.878 384.122 383.912 384.169 382.684 383.502C381.455 382.831 381.426 381.699 382.624 380.972H382.624Z" fill="#FFCA00"/>
<path fill-rule="evenodd" clip-rule="evenodd" d="M373.178 385.504L384.463 391.649L386.649 390.318L375.365 384.173L373.178 385.504Z" fill="#EFF2F4"/>
<path fill-rule="evenodd" clip-rule="evenodd" d="M373.979 389.904L381.023 393.737L383.211 392.406L376.166 388.572L373.979 389.904Z" fill="#EFF2F4"/>
<path fill-rule="evenodd" clip-rule="evenodd" d="M368.81 387.09L373.586 389.69L375.772 388.358L370.998 385.757L368.81 387.09Z" fill="#EFF2F4"/>
<path fill-rule="evenodd" clip-rule="evenodd" d="M363.282 371.84L363.323 375.158C364.937 375.106 366.493 374.909 367.946 374.581C367.147 373.555 365.966 372.639 364.471 371.877C364.077 371.853 363.68 371.841 363.282 371.84V371.84ZM357.935 375.152C357.364 376.049 357.053 377.009 357.032 378L362.704 377.885L362.677 375.547C361.06 375.559 359.454 375.424 357.935 375.152V375.152ZM358.115 381.329C359.597 381.007 361.163 380.815 362.742 380.764L362.712 378.262L357.038 378.374C357.085 379.416 357.456 380.412 358.115 381.329ZM361.778 384.267L362.783 384.29L362.746 381.139C361.224 381.189 359.752 381.367 358.368 381.66C359.168 382.649 360.328 383.532 361.779 384.267L361.778 384.267ZM364.621 384.196C366.032 383.413 367.149 382.5 367.922 381.497C366.491 381.239 364.971 381.113 363.397 381.126L363.437 384.279C363.831 384.262 364.229 384.236 364.621 384.196H364.621ZM370.765 382.29L370.84 382.245C370.102 381.995 369.333 381.782 368.521 381.613L368.238 381.969C367.588 382.728 366.767 383.421 365.785 384.041C367.621 383.736 369.35 383.149 370.764 382.29H370.765L370.765 382.29ZM373.811 378.039L369.843 378.118C369.817 379.194 369.454 380.267 368.773 381.268C369.203 381.36 369.624 381.459 370.032 381.572C370.459 381.689 370.873 381.818 371.274 381.959C372.919 380.813 373.759 379.422 373.809 378.039H373.811V378.039ZM371.317 373.959C370.876 374.135 370.42 374.301 369.943 374.45L368.79 374.775C369.432 375.713 369.789 376.72 369.838 377.743L373.804 377.664C373.714 376.328 372.884 375.018 371.316 373.958L371.318 373.959L371.317 373.959ZM363.364 378.249L363.393 380.752C365.023 380.739 366.64 380.876 368.173 381.153C368.814 380.205 369.17 379.188 369.197 378.133L363.364 378.249L363.364 378.249ZM369.189 377.757C369.139 376.756 368.801 375.801 368.195 374.919C366.645 375.271 364.993 375.48 363.333 375.534L363.36 377.873L369.189 377.756V377.757ZM370.545 373.49C369.131 372.719 367.436 372.223 365.649 371.993C366.639 372.571 367.474 373.228 368.14 373.959L368.546 374.441C369.366 374.231 370.146 373.976 370.887 373.686L370.545 373.491V373.49ZM368.562 372.07L368.717 372.117L368.839 372.154C369.728 372.426 370.539 372.758 371.229 373.138C373.366 374.316 374.692 375.978 374.714 377.836C374.76 381.513 369.715 384.61 363.425 384.8L363.115 384.814L362.808 384.822C362.173 384.816 361.539 384.777 360.91 384.712L360.061 384.615L358.591 383.814C359.254 383.977 359.941 384.098 360.637 384.176C359.62 383.586 358.763 382.918 358.081 382.172L357.769 381.801C357.121 381.955 356.498 382.142 355.901 382.35L355.42 382.09L356.129 381.85C356.579 381.71 357.04 381.581 357.515 381.467C356.821 380.5 356.436 379.453 356.387 378.389L352.22 378.474C352.275 379.323 352.637 380.161 353.29 380.931L352.766 380.645C351.542 379.973 351.474 378.845 352.584 378.09L356.378 378.014C356.402 377.087 356.681 376.162 357.193 375.283L358.351 374.578L358.171 374.807C359.596 375.061 361.108 375.183 362.67 375.171L362.634 371.973L363.7 371.323C364.336 371.346 364.972 371.396 365.59 371.472C366.617 371.591 367.616 371.792 368.56 372.071H368.562L368.562 372.07Z" fill="#EFF2F4"/>
<path fill-rule="evenodd" clip-rule="evenodd" d="M338.942 380.388L339.011 383.009L375.176 402.792L375.108 400.17L338.942 380.388Z" fill="#7C4893"/>
<path fill-rule="evenodd" clip-rule="evenodd" d="M375.111 400.169L375.178 402.792L386.912 395.659L386.843 393.035L375.111 400.169Z" fill="#19558A"/>
<path fill-rule="evenodd" clip-rule="evenodd" d="M375.31 400.989L375.35 402.004L386.879 394.931L386.839 393.915L375.31 400.989Z" fill="#020C12"/>
<path fill-rule="evenodd" clip-rule="evenodd" d="M386.84 393.035L350.675 373.252L338.942 380.388L375.108 400.169L386.84 393.035Z" fill="#082C44"/>
<path fill-rule="evenodd" clip-rule="evenodd" d="M365.102 412.925L237.711 338.69L179.772 391.352C179.381 391.851 179.148 392.478 179.148 393.161C179.148 394.063 179.555 394.869 180.195 395.408L303.245 467.141C303.567 467.285 303.925 467.365 304.3 467.365C304.832 467.365 305.326 467.204 305.736 466.929L365.102 412.925V412.925Z" fill="#4C628C"/>
<path fill-rule="evenodd" clip-rule="evenodd" d="M365.1 412.925L237.709 338.691L256.729 327.545L384.518 399.75L365.1 412.925Z" fill="#4F5E74"/>
<path fill-rule="evenodd" clip-rule="evenodd" d="M294.838 364.973L249.424 338.384L257.261 333.79L302.84 359.544L294.838 364.973Z" fill="#CDCDCD"/>
<path fill-rule="evenodd" clip-rule="evenodd" d="M298.036 362.804L257.249 339.823L257.259 333.79L302.838 359.544L298.036 362.804Z" fill="#949494"/>
<path fill-rule="evenodd" clip-rule="evenodd" d="M368.413 406.16L325.952 381.211L334.026 376.479L376.657 400.567L368.413 406.16Z" fill="#002130"/>
<path fill-rule="evenodd" clip-rule="evenodd" d="M333.997 402.724L238.648 347.458L189.206 392.398L284.554 447.663L333.997 402.724Z" fill="white"/>
<path fill-rule="evenodd" clip-rule="evenodd" d="M330.073 416.148L330.415 419.135L331.017 419.965L330.675 416.977L330.073 416.148Z" fill="#8D241E"/>
<path fill-rule="evenodd" clip-rule="evenodd" d="M330.672 416.977L331.014 419.966L337.88 423.912L337.528 420.906L330.672 416.977Z" fill="#81211B"/>
<path fill-rule="evenodd" clip-rule="evenodd" d="M339.99 420.643L340.349 423.646L346.268 418.301L345.904 415.312L339.99 420.643Z" fill="#7D201B"/>
<path fill-rule="evenodd" clip-rule="evenodd" d="M337.53 420.906L337.883 423.912C338.612 424.328 339.719 424.214 340.352 423.646L339.992 420.642C339.362 421.211 338.258 421.325 337.53 420.906Z" fill="#8D241E"/>
<path fill-rule="evenodd" clip-rule="evenodd" d="M330.483 415.2C329.853 415.764 329.939 416.56 330.673 416.978L337.529 420.907C338.256 421.326 339.36 421.211 339.99 420.642L345.905 415.312C346.53 414.749 346.438 413.946 345.709 413.534L338.842 409.635C338.108 409.217 337.011 409.332 336.385 409.894L330.483 415.199H330.483V415.2Z" fill="#CD342C"/>
<path fill-rule="evenodd" clip-rule="evenodd" d="M335.682 424.53L336.035 427.539L336.443 426.585L336.089 423.581L335.682 424.53Z" fill="#32712F"/>
<path fill-rule="evenodd" clip-rule="evenodd" d="M319.825 425.353L320.156 428.358L320.761 429.197L320.428 426.188L319.825 425.353Z" fill="#32712F"/>
<path fill-rule="evenodd" clip-rule="evenodd" d="M320.428 426.188L320.76 429.197L327.61 433.172L327.266 430.152L320.428 426.188Z" fill="#2E682B"/>
<path fill-rule="evenodd" clip-rule="evenodd" d="M329.726 429.893L330.074 432.913L336.032 427.539L335.678 424.53L329.726 429.893Z" fill="#2D652A"/>
<path fill-rule="evenodd" clip-rule="evenodd" d="M327.263 430.152L327.608 433.171C328.335 433.594 329.444 433.487 330.074 432.912L329.726 429.892C329.095 430.46 327.992 430.574 327.263 430.151V430.152H327.263Z" fill="#32712F"/>
<path fill-rule="evenodd" clip-rule="evenodd" d="M320.244 424.399C319.614 424.963 319.701 425.765 320.428 426.188L327.267 430.152C327.995 430.575 329.099 430.461 329.73 429.893L335.682 424.53C336.301 423.972 336.214 423.164 335.486 422.752L328.637 418.816C327.903 418.392 326.804 418.507 326.185 419.064L320.244 424.399Z" fill="#49A545"/>
<path fill-rule="evenodd" clip-rule="evenodd" d="M325.168 434.001L325.509 437.032L325.923 436.077L325.585 433.053L325.168 434.001Z" fill="#AAAAAA"/>
<path fill-rule="evenodd" clip-rule="evenodd" d="M309.311 434.794L309.627 437.819L310.23 438.669L309.915 435.645L309.311 434.794Z" fill="#AAAAAA"/>
<path fill-rule="evenodd" clip-rule="evenodd" d="M309.914 435.645L310.229 438.669L317.057 442.682L316.731 439.645L309.914 435.645Z" fill="#9B9B9B"/>
<path fill-rule="evenodd" clip-rule="evenodd" d="M319.195 439.392L319.52 442.432L325.511 437.033L325.168 434.001L319.195 439.392Z" fill="#979797"/>
<path fill-rule="evenodd" clip-rule="evenodd" d="M316.729 439.644L317.055 442.682C317.784 443.11 318.891 442.996 319.517 442.432L319.193 439.392C318.567 439.954 317.457 440.068 316.729 439.644Z" fill="#AAAAAA"/>
<path fill-rule="evenodd" clip-rule="evenodd" d="M309.73 433.845C309.104 434.408 309.179 435.211 309.915 435.645L316.73 439.645C317.458 440.069 318.568 439.954 319.193 439.391L325.168 434.001C325.802 433.433 325.705 432.635 324.983 432.212L318.148 428.238C317.416 427.815 316.323 427.919 315.693 428.487L309.73 433.845V433.844V433.845Z" fill="#F8F8F8"/>
<path fill-rule="evenodd" clip-rule="evenodd" d="M314.339 443.766L314.665 446.819L315.085 445.855L314.757 442.807L314.339 443.766Z" fill="#AAAAAA"/>
<path fill-rule="evenodd" clip-rule="evenodd" d="M298.473 444.535L298.777 447.578L299.375 448.434L299.071 445.387L298.473 444.535Z" fill="#AAAAAA"/>
<path fill-rule="evenodd" clip-rule="evenodd" d="M299.069 445.387L299.372 448.435L306.184 452.491L305.868 449.425L299.069 445.387Z" fill="#9B9B9B"/>
<path fill-rule="evenodd" clip-rule="evenodd" d="M308.333 449.183L308.648 452.24L314.666 446.819L314.339 443.766L308.333 449.183Z" fill="#979797"/>
<path fill-rule="evenodd" clip-rule="evenodd" d="M305.87 449.425L306.186 452.49C306.909 452.923 308.022 452.81 308.647 452.24L308.332 449.183C307.706 449.747 306.598 449.86 305.87 449.425Z" fill="#AAAAAA"/>
<path fill-rule="evenodd" clip-rule="evenodd" d="M298.893 443.582C298.263 444.145 298.338 444.953 299.067 445.387L305.867 449.425C306.596 449.86 307.704 449.746 308.329 449.183L314.336 443.764C314.973 443.196 314.881 442.388 314.158 441.961L307.34 437.947C306.612 437.519 305.519 437.628 304.883 438.197L298.893 443.582H298.893Z" fill="#F8F8F8"/>
<path fill-rule="evenodd" clip-rule="evenodd" d="M384.522 399.75L365.102 412.925V442.872L384.522 429.695V399.75Z" fill="#2D3D5C"/>
<path fill-rule="evenodd" clip-rule="evenodd" d="M365.535 408.111L322.709 383.111L329.129 379.347L372.091 403.662L365.535 408.111Z" fill="#013952"/>
<path fill-rule="evenodd" clip-rule="evenodd" d="M292.035 387.724L239.766 358.106L230.701 366.346L282.97 395.963L292.035 387.724Z" fill="#EBEDF9"/>
<path fill-rule="evenodd" clip-rule="evenodd" d="M266.718 391.864L227.068 369.317L221.504 374.374L261.153 396.921L266.718 391.864Z" fill="#EBEDF9"/>
<path fill-rule="evenodd" clip-rule="evenodd" d="M257.895 400.552L218.246 378.006L212.681 383.063L252.331 405.61L257.895 400.552Z" fill="#EBEDF9"/>
<path fill-rule="evenodd" clip-rule="evenodd" d="M276.13 425.353L209.773 387.024L204.209 392.081L270.566 430.41L276.13 425.353Z" fill="#EBEDF9"/>
<defs>
<linearGradient id="paint0_linear" x1="76.8122" y1="113.725" x2="78.9781" y2="110.478" gradientUnits="userSpaceOnUse">
<stop stop-color="#A1C527"/>
<stop offset="0.439216" stop-color="#9EC428"/>
<stop offset="0.729412" stop-color="#95C12B"/>
<stop offset="0.831373" stop-color="#46A33A"/>
<stop offset="1" stop-color="#18993C"/>
</linearGradient>
<linearGradient id="paint1_linear" x1="77.8689" y1="124.628" x2="81.146" y2="120.249" gradientUnits="userSpaceOnUse">
<stop stop-color="#A1C527"/>
<stop offset="0.439216" stop-color="#9EC428"/>
<stop offset="0.729412" stop-color="#95C12B"/>
<stop offset="0.831373" stop-color="#46A33A"/>
<stop offset="1" stop-color="#18993C"/>
</linearGradient>
<linearGradient id="paint2_linear" x1="74.6188" y1="38.3011" x2="74.6188" y2="36.1266" gradientUnits="userSpaceOnUse">
<stop stop-color="#A1C527"/>
<stop offset="0.439216" stop-color="#9EC428"/>
<stop offset="0.729412" stop-color="#95C12B"/>
<stop offset="0.831373" stop-color="#46A33A"/>
<stop offset="1" stop-color="#18993C"/>
</linearGradient>
</defs>
</svg>
